<svg width="20" height="20" viewBox="0 0 20 20" fill="none" xmlns="http://www.w3.org/2000/svg">
<mask id="mask0_749_8809" style="mask-type:alpha" maskUnits="userSpaceOnUse" x="0" y="0" width="20" height="20">
<circle cx="10" cy="10" r="10" fill="#D9D9D9"/>
</mask>
<g mask="url(#mask0_749_8809)">
<path d="M-6 0H25V21H-6V0Z" fill="#FF0004"/>
<path d="M9.59075 4.60209C9.61939 4.53493 9.66816 4.47747 9.73086 4.43703C9.79356 4.39659 9.86735 4.375 9.94285 4.375C10.0184 4.375 10.0921 4.39659 10.1548 4.43703C10.2175 4.47747 10.2663 4.53493 10.295 4.60209L11.7338 7.92947C11.7608 7.99173 11.805 8.04564 11.8618 8.08527C11.9185 8.1249 11.9856 8.14871 12.0555 8.15408L15.7918 8.44183C16.1297 8.46787 16.2665 8.87346 16.0092 9.08504L13.1626 11.43C13.1094 11.4738 13.0697 11.5307 13.048 11.5947C13.0263 11.6587 13.0233 11.7271 13.0393 11.7926L13.9094 15.2984C13.9269 15.3687 13.9223 15.4425 13.8963 15.5103C13.8702 15.5781 13.8238 15.637 13.7629 15.6795C13.7021 15.722 13.6295 15.7462 13.5543 15.7491C13.4792 15.7519 13.4048 15.7333 13.3406 15.6955L10.1413 13.8173C10.0815 13.7822 10.0129 13.7637 9.94285 13.7637C9.87285 13.7637 9.8042 13.7822 9.74446 13.8173L6.54506 15.6962C6.48091 15.7339 6.40656 15.7526 6.3314 15.7497C6.25624 15.7469 6.18365 15.7227 6.12279 15.6802C6.06193 15.6377 6.01553 15.5788 5.98945 15.511C5.96338 15.4431 5.95879 15.3694 5.97628 15.2991L6.84638 11.7926C6.86252 11.7272 6.85955 11.6586 6.83781 11.5947C6.81607 11.5307 6.77639 11.4737 6.72315 11.43L3.87653 9.08504C3.81921 9.03806 3.77767 8.97578 3.75719 8.90608C3.73671 8.83639 3.7382 8.76242 3.76148 8.69355C3.78475 8.62467 3.82877 8.56398 3.88794 8.51917C3.94711 8.47436 4.01879 8.44744 4.09389 8.44183L7.83024 8.15408C7.90015 8.14871 7.96717 8.1249 8.02391 8.08527C8.08066 8.04564 8.12494 7.99173 8.15187 7.92947L9.59075 4.60209Z" fill="#FFF600"/>
</g>
</svg>
