<svg width="22" height="22" viewBox="0 0 22 22" fill="none" xmlns="http://www.w3.org/2000/svg">
<path d="M15.9854 16.1041C15.4031 15.3332 14.6498 14.708 13.7847 14.2777C12.9197 13.8475 11.9665 13.624 11.0004 13.6249C10.0343 13.624 9.08115 13.8475 8.2161 14.2777C7.35104 14.708 6.5977 15.3332 6.01542 16.1041M15.9854 16.1041C17.1217 15.0934 17.923 13.7612 18.2847 12.2841C18.6465 10.8071 18.5506 9.25493 18.01 7.83356C17.4693 6.4122 16.5094 5.18877 15.2574 4.32552C14.0055 3.46228 12.5207 3 11 3C9.4793 3 7.99453 3.46228 6.74259 4.32552C5.49065 5.18877 4.53069 6.4122 3.99003 7.83356C3.44937 9.25493 3.35354 10.8071 3.71527 12.2841C4.07699 13.7612 4.87917 15.0934 6.01542 16.1041M15.9854 16.1041C14.6138 17.3276 12.8384 18.0026 11.0004 18C9.16211 18.0028 7.38728 17.3278 6.01542 16.1041M13.5004 8.62484C13.5004 9.28789 13.237 9.92379 12.7682 10.3926C12.2993 10.8615 11.6635 11.1249 11.0004 11.1249C10.3374 11.1249 9.70149 10.8615 9.23265 10.3926C8.76381 9.92379 8.50042 9.28789 8.50042 8.62484C8.50042 7.96179 8.76381 7.3259 9.23265 6.85705C9.70149 6.3882 10.3374 6.1248 11.0004 6.1248C11.6635 6.1248 12.2993 6.3882 12.7682 6.85705C13.237 7.3259 13.5004 7.96179 13.5004 8.62484Z" stroke="white" stroke-linecap="round" stroke-linejoin="round"/>
</svg>
