<svg width="18" height="18" viewBox="0 0 18 18" fill="none" xmlns="http://www.w3.org/2000/svg">
<path d="M1.5 17.0001C1.53214 15.2847 2.33645 13.649 3.73948 12.4459C5.1425 11.2427 7.03183 10.5684 9 10.5684C10.9682 10.5684 12.8575 11.2427 14.2605 12.4459C15.6636 13.649 16.4679 15.2847 16.5 17.0001M12.7505 4.69208C12.7505 5.55913 12.3554 6.39067 11.652 7.00377C10.9486 7.61687 9.99469 7.96131 9 7.96131C8.00531 7.96131 7.05135 7.61687 6.348 7.00377C5.64464 6.39067 5.2495 5.55913 5.2495 4.69208C5.2495 3.82503 5.64464 2.99349 6.348 2.38039C7.05135 1.76729 8.00531 1.42285 9 1.42285C9.99469 1.42285 10.9486 1.76729 11.652 2.38039C12.3554 2.99349 12.7505 3.82503 12.7505 4.69208Z" stroke="white" stroke-width="1.5" stroke-linecap="round" stroke-linejoin="round"/>
</svg>
