<svg width="22" height="15" viewBox="0 0 22 15" fill="none" xmlns="http://www.w3.org/2000/svg">
<path d="M15.6318 1.75V2.5M15.6318 5.5V6.25M15.6318 9.25V10M15.6318 13V13.75M6.26873 8.5H11.7305M6.26873 10.75H9.38977M1.9773 1C1.33125 1 0.806915 1.504 0.806915 2.125V5.151C1.28209 5.41398 1.67677 5.79267 1.95121 6.24895C2.22565 6.70522 2.37014 7.22296 2.37014 7.75C2.37014 8.27704 2.22565 8.79478 1.95121 9.25105C1.67677 9.70733 1.28209 10.086 0.806915 10.349V13.375C0.806915 13.996 1.33125 14.5 1.9773 14.5H19.9233C20.5693 14.5 21.0937 13.996 21.0937 13.375V10.349C20.6185 10.086 20.2238 9.70733 19.9494 9.25105C19.6749 8.79478 19.5304 8.27704 19.5304 7.75C19.5304 7.22296 19.6749 6.70522 19.9494 6.24895C20.2238 5.79267 20.6185 5.41398 21.0937 5.151V2.125C21.0937 1.504 20.5693 1 19.9233 1H1.9773Z" stroke="black" stroke-linecap="round" stroke-linejoin="round"/>
</svg>
