<svg width="22" height="18" viewBox="0 0 22 18" fill="none" xmlns="http://www.w3.org/2000/svg">
<path d="M14.0769 5.923H17.9231M14.0769 8.99993H17.9231M14.0769 12.0768H17.9231M3.30769 16.6922H18.6923C19.3043 16.6922 19.8913 16.4491 20.3241 16.0163C20.7569 15.5835 21 14.9966 21 14.3845V3.61531C21 3.00327 20.7569 2.4163 20.3241 1.98352C19.8913 1.55075 19.3043 1.30762 18.6923 1.30762H3.30769C2.69565 1.30762 2.10868 1.55075 1.67591 1.98352C1.24313 2.4163 1 3.00327 1 3.61531V14.3845C1 14.9966 1.24313 15.5835 1.67591 16.0163C2.10868 16.4491 2.69565 16.6922 3.30769 16.6922ZM9.46154 6.30762C9.46154 6.56016 9.4118 6.81023 9.31515 7.04355C9.21851 7.27687 9.07686 7.48886 8.89828 7.66744C8.71971 7.84601 8.50771 7.98767 8.27439 8.08431C8.04107 8.18095 7.791 8.23069 7.53846 8.23069C7.28592 8.23069 7.03585 8.18095 6.80253 8.08431C6.56921 7.98767 6.35722 7.84601 6.17864 7.66744C6.00007 7.48886 5.85841 7.27687 5.76177 7.04355C5.66513 6.81023 5.61538 6.56016 5.61538 6.30762C5.61538 5.79759 5.81799 5.30844 6.17864 4.9478C6.53929 4.58715 7.02843 4.38454 7.53846 4.38454C8.04849 4.38454 8.53764 4.58715 8.89828 4.9478C9.25893 5.30844 9.46154 5.79759 9.46154 6.30762ZM10.7887 12.8061C9.788 13.3391 8.67126 13.6171 7.53744 13.6153C6.40431 13.6167 5.28831 13.3388 4.28821 12.8061C4.5326 12.1407 4.97533 11.5663 5.55658 11.1606C6.13783 10.7549 6.82961 10.5373 7.53846 10.5373C8.24731 10.5373 8.93909 10.7549 9.52034 11.1606C10.1016 11.5663 10.5443 12.1407 10.7887 12.8061Z" stroke="black" stroke-linecap="round" stroke-linejoin="round"/>
</svg>
