<svg width="10" height="15" viewBox="0 0 10 15" fill="none" xmlns="http://www.w3.org/2000/svg">
<path d="M7.66667 8.93182L7.66667 1.25M7.66667 8.93182C8.02029 8.93182 8.35943 9.05633 8.60948 9.27796C8.85952 9.4996 9 9.8002 9 10.1136C9 10.4271 8.85952 10.7277 8.60948 10.9493C8.35943 11.1709 8.02029 11.2955 7.66667 11.2955M7.66667 8.93182C7.31304 8.93182 6.97391 9.05633 6.72386 9.27796C6.47381 9.4996 6.33333 9.8002 6.33333 10.1136C6.33333 10.4271 6.47381 10.7277 6.72386 10.9493C6.97391 11.1709 7.31304 11.2955 7.66667 11.2955M7.66667 11.2955V14.25M2.33333 4.20455V1.25M2.33333 4.20455C2.68696 4.20455 3.02609 4.32906 3.27614 4.55069C3.52619 4.77233 3.66667 5.07293 3.66667 5.38636C3.66667 5.6998 3.52619 6.0004 3.27614 6.22204C3.02609 6.44367 2.68696 6.56818 2.33333 6.56818M2.33333 4.20455C1.97971 4.20455 1.64057 4.32906 1.39052 4.55069C1.14048 4.77233 1 5.07293 1 5.38636C1 5.6998 1.14048 6.0004 1.39052 6.22204C1.64057 6.44367 1.97971 6.56818 2.33333 6.56818M2.33333 6.56818L2.33333 14.25" stroke="black" stroke-width="1.5" stroke-linecap="round" stroke-linejoin="round"/>
</svg>
