<svg width="19" height="11" viewBox="0 0 19 11" fill="none" xmlns="http://www.w3.org/2000/svg">
<path d="M7.75 8.5H17.5M7.75 8.5C7.75 8.89782 7.59196 9.27935 7.31066 9.56066C7.02936 9.84196 6.64782 10 6.25 10C5.85218 10 5.47064 9.84196 5.18934 9.56066C4.90804 9.27935 4.75 8.89782 4.75 8.5M7.75 8.5C7.75 8.10218 7.59196 7.72065 7.31066 7.43934C7.02936 7.15804 6.64782 7 6.25 7C5.85218 7 5.47064 7.15804 5.18934 7.43934C4.90804 7.72065 4.75 8.10218 4.75 8.5M4.75 8.5H1M13.75 2.5H17.5M13.75 2.5C13.75 2.89782 13.592 3.27936 13.3107 3.56066C13.0294 3.84196 12.6478 4 12.25 4C11.8522 4 11.4706 3.84196 11.1893 3.56066C10.908 3.27936 10.75 2.89782 10.75 2.5M13.75 2.5C13.75 2.10218 13.592 1.72064 13.3107 1.43934C13.0294 1.15804 12.6478 1 12.25 1C11.8522 1 11.4706 1.15804 11.1893 1.43934C10.908 1.72064 10.75 2.10218 10.75 2.5M10.75 2.5H1" stroke="black" stroke-width="1.5" stroke-linecap="round" stroke-linejoin="round"/>
</svg>
