<svg width="22" height="22" viewBox="0 0 22 22" fill="none" xmlns="http://www.w3.org/2000/svg">
<path d="M4 11.875C4 11.392 4.392 11 4.875 11H6.625C7.108 11 7.5 11.392 7.5 11.875V17.125C7.5 17.608 7.108 18 6.625 18H4.875C4.64294 18 4.42038 17.9078 4.25628 17.7437C4.09219 17.5796 4 17.3571 4 17.125V11.875ZM9.25 8.375C9.25 7.892 9.642 7.5 10.125 7.5H11.875C12.358 7.5 12.75 7.892 12.75 8.375V17.125C12.75 17.608 12.358 18 11.875 18H10.125C9.89294 18 9.67038 17.9078 9.50628 17.7437C9.34219 17.5796 9.25 17.3571 9.25 17.125V8.375ZM14.5 4.875C14.5 4.392 14.892 4 15.375 4H17.125C17.608 4 18 4.392 18 4.875V17.125C18 17.608 17.608 18 17.125 18H15.375C15.1429 18 14.9204 17.9078 14.7563 17.7437C14.5922 17.5796 14.5 17.3571 14.5 17.125V4.875Z" stroke="white" stroke-linecap="round" stroke-linejoin="round"/>
</svg>
