<svg width="30" height="31" viewBox="0 0 30 31" fill="none" xmlns="http://www.w3.org/2000/svg">
<path d="M6 15.842H14.7273M6 19.9329H14.7273M24 19.9329H20.7273M6 24.0238H15.8182M20.7273 19.9329V15.842M20.7273 19.9329H17.4545M20.7273 19.9329V24.0238M8.04545 7.66016H21.9545C22.497 7.66016 23.0173 7.87566 23.4009 8.25926C23.7845 8.64285 24 9.16312 24 9.70561C24 10.2481 23.7845 10.7684 23.4009 11.152C23.0173 11.5356 22.497 11.7511 21.9545 11.7511H8.04545C7.50297 11.7511 6.9827 11.5356 6.5991 11.152C6.2155 10.7684 6 10.2481 6 9.70561C6 9.16312 6.2155 8.64285 6.5991 8.25926C6.9827 7.87566 7.50297 7.66016 8.04545 7.66016Z" stroke="black" stroke-width="1.5" stroke-linecap="round" stroke-linejoin="round"/>
</svg>
