<svg width="18" height="17" viewBox="0 0 18 17" fill="none" xmlns="http://www.w3.org/2000/svg">
<path d="M0.75 8.5H17.25M0.75 12.25H17.25M0.75 16H17.25M2.625 1H15.375C15.8723 1 16.3492 1.19754 16.7008 1.54917C17.0525 1.90081 17.25 2.37772 17.25 2.875C17.25 3.37228 17.0525 3.84919 16.7008 4.20083C16.3492 4.55246 15.8723 4.75 15.375 4.75H2.625C2.12772 4.75 1.65081 4.55246 1.29917 4.20083C0.947544 3.84919 0.75 3.37228 0.75 2.875C0.75 2.37772 0.947544 1.90081 1.29917 1.54917C1.65081 1.19754 2.12772 1 2.625 1Z" stroke="white" stroke-width="1.5" stroke-linecap="round" stroke-linejoin="round"/>
</svg>
