<svg width="237" height="26" viewBox="0 0 237 26" fill="none" xmlns="http://www.w3.org/2000/svg">
<mask id="path-1-outside-1_305_3666" maskUnits="userSpaceOnUse" x="0" y="0" width="237" height="26" fill="black">
<rect fill="white" width="237" height="26"/>
<path d="M3.22219 24.4528V8.4658H1V24.4528H3.22219ZM10.4634 12.4919V12.4528L9.31404 10.4202L8.89259 9.67752L5.94245 4.43974C5.71257 4.08795 5.36774 3.89251 4.9463 3.89251H1V1.62541H4.9463C6.21064 1.62541 7.24511 2.21173 7.85812 3.30619L8.73934 4.83062L12.4174 11.3192C12.609 11.7101 12.9538 11.9055 13.3753 11.9055H14.6779C15.0994 11.9055 15.4442 11.7101 15.6358 11.3192L19.3139 4.83062L20.1951 3.30619C20.8081 2.21173 21.8426 1.62541 23.0686 1.62541H27.0532V24.4528H24.831V3.89251H23.0686C22.6855 3.89251 22.3023 4.08795 22.1108 4.43974L19.3905 9.24756L18.0112 11.7101L17.5898 12.4528L17.5515 12.4919C16.9384 13.5472 15.904 14.1726 14.6779 14.1726H13.3753C12.1492 14.1726 11.0765 13.5472 10.4634 12.4919Z"/>
<path d="M62.9754 14.1726H50.0638V11.9055H62.9754V14.1726ZM65.1976 22.1857V24.4528H50.0638V22.1857H65.1976ZM50.0638 3.89251V1.62541H65.1976V3.89251H50.0638Z"/>
<path d="M88.2396 1.62541H90.4618V17.9642C90.4618 20.2704 92.3392 22.1857 94.5997 22.1857H103.373V24.4528H94.5997C91.1132 24.4528 88.2396 21.5212 88.2396 17.9642V1.62541Z"/>
<path d="M138.139 22.7329C143.427 22.7329 147.68 18.3941 147.68 13C147.68 7.64495 143.427 3.30619 138.139 3.30619C132.89 3.30619 128.638 7.64495 128.638 13C128.638 18.3941 132.89 22.7329 138.139 22.7329ZM138.139 25C131.664 25 126.416 19.645 126.416 13C126.416 6.39414 131.664 1 138.139 1C144.653 1 149.902 6.39414 149.902 13C149.902 19.645 144.653 25 138.139 25Z"/>
<path d="M190.291 13.0391C190.291 19.2932 185.234 24.4528 179.104 24.4528H172.935V22.1857H179.104C184.008 22.1857 188.069 18.0423 188.069 13.0391C188.069 7.99674 184.008 3.85342 179.104 3.85342H172.935V1.62541H179.717C185.578 1.93811 190.291 6.94137 190.291 13.0391Z"/>
<path d="M222.514 11.3192C222.705 11.7101 223.05 11.9055 223.471 11.9055H225.847C226.23 11.9055 226.613 11.7101 226.805 11.3192L230.483 4.83062L231.326 3.30619C231.939 2.21173 233.012 1.62541 234.238 1.62541H236V3.89251H234.238C233.816 3.89251 233.471 4.08795 233.28 4.43974L230.559 9.24756L229.142 11.7101L228.72 12.4528V12.4919C228.107 13.5472 227.073 14.1726 225.847 14.1726H225.77V24.4528H223.548V14.1726H223.471C222.245 14.1726 221.173 13.5472 220.56 12.4919V12.4528L219.41 10.4202L218.989 9.67752L216.039 4.43974C215.809 4.08795 215.464 3.89251 215.043 3.89251H213.318V1.62541H215.081C216.307 1.62541 217.341 2.21173 217.954 3.30619L218.836 4.83062L222.514 11.3192Z"/>
</mask>
<path d="M3.22219 24.4528V8.4658H1V24.4528H3.22219ZM10.4634 12.4919V12.4528L9.31404 10.4202L8.89259 9.67752L5.94245 4.43974C5.71257 4.08795 5.36774 3.89251 4.9463 3.89251H1V1.62541H4.9463C6.21064 1.62541 7.24511 2.21173 7.85812 3.30619L8.73934 4.83062L12.4174 11.3192C12.609 11.7101 12.9538 11.9055 13.3753 11.9055H14.6779C15.0994 11.9055 15.4442 11.7101 15.6358 11.3192L19.3139 4.83062L20.1951 3.30619C20.8081 2.21173 21.8426 1.62541 23.0686 1.62541H27.0532V24.4528H24.831V3.89251H23.0686C22.6855 3.89251 22.3023 4.08795 22.1108 4.43974L19.3905 9.24756L18.0112 11.7101L17.5898 12.4528L17.5515 12.4919C16.9384 13.5472 15.904 14.1726 14.6779 14.1726H13.3753C12.1492 14.1726 11.0765 13.5472 10.4634 12.4919Z" fill="black"/>
<path d="M62.9754 14.1726H50.0638V11.9055H62.9754V14.1726ZM65.1976 22.1857V24.4528H50.0638V22.1857H65.1976ZM50.0638 3.89251V1.62541H65.1976V3.89251H50.0638Z" fill="black"/>
<path d="M88.2396 1.62541H90.4618V17.9642C90.4618 20.2704 92.3392 22.1857 94.5997 22.1857H103.373V24.4528H94.5997C91.1132 24.4528 88.2396 21.5212 88.2396 17.9642V1.62541Z" fill="black"/>
<path d="M138.139 22.7329C143.427 22.7329 147.68 18.3941 147.68 13C147.68 7.64495 143.427 3.30619 138.139 3.30619C132.89 3.30619 128.638 7.64495 128.638 13C128.638 18.3941 132.89 22.7329 138.139 22.7329ZM138.139 25C131.664 25 126.416 19.645 126.416 13C126.416 6.39414 131.664 1 138.139 1C144.653 1 149.902 6.39414 149.902 13C149.902 19.645 144.653 25 138.139 25Z" fill="black"/>
<path d="M190.291 13.0391C190.291 19.2932 185.234 24.4528 179.104 24.4528H172.935V22.1857H179.104C184.008 22.1857 188.069 18.0423 188.069 13.0391C188.069 7.99674 184.008 3.85342 179.104 3.85342H172.935V1.62541H179.717C185.578 1.93811 190.291 6.94137 190.291 13.0391Z" fill="black"/>
<path d="M222.514 11.3192C222.705 11.7101 223.05 11.9055 223.471 11.9055H225.847C226.23 11.9055 226.613 11.7101 226.805 11.3192L230.483 4.83062L231.326 3.30619C231.939 2.21173 233.012 1.62541 234.238 1.62541H236V3.89251H234.238C233.816 3.89251 233.471 4.08795 233.28 4.43974L230.559 9.24756L229.142 11.7101L228.72 12.4528V12.4919C228.107 13.5472 227.073 14.1726 225.847 14.1726H225.77V24.4528H223.548V14.1726H223.471C222.245 14.1726 221.173 13.5472 220.56 12.4919V12.4528L219.41 10.4202L218.989 9.67752L216.039 4.43974C215.809 4.08795 215.464 3.89251 215.043 3.89251H213.318V1.62541H215.081C216.307 1.62541 217.341 2.21173 217.954 3.30619L218.836 4.83062L222.514 11.3192Z" fill="black"/>
<path d="M3.22219 24.4528V8.4658H1V24.4528H3.22219ZM10.4634 12.4919V12.4528L9.31404 10.4202L8.89259 9.67752L5.94245 4.43974C5.71257 4.08795 5.36774 3.89251 4.9463 3.89251H1V1.62541H4.9463C6.21064 1.62541 7.24511 2.21173 7.85812 3.30619L8.73934 4.83062L12.4174 11.3192C12.609 11.7101 12.9538 11.9055 13.3753 11.9055H14.6779C15.0994 11.9055 15.4442 11.7101 15.6358 11.3192L19.3139 4.83062L20.1951 3.30619C20.8081 2.21173 21.8426 1.62541 23.0686 1.62541H27.0532V24.4528H24.831V3.89251H23.0686C22.6855 3.89251 22.3023 4.08795 22.1108 4.43974L19.3905 9.24756L18.0112 11.7101L17.5898 12.4528L17.5515 12.4919C16.9384 13.5472 15.904 14.1726 14.6779 14.1726H13.3753C12.1492 14.1726 11.0765 13.5472 10.4634 12.4919Z" stroke="black" mask="url(#path-1-outside-1_305_3666)"/>
<path d="M62.9754 14.1726H50.0638V11.9055H62.9754V14.1726ZM65.1976 22.1857V24.4528H50.0638V22.1857H65.1976ZM50.0638 3.89251V1.62541H65.1976V3.89251H50.0638Z" stroke="black" mask="url(#path-1-outside-1_305_3666)"/>
<path d="M88.2396 1.62541H90.4618V17.9642C90.4618 20.2704 92.3392 22.1857 94.5997 22.1857H103.373V24.4528H94.5997C91.1132 24.4528 88.2396 21.5212 88.2396 17.9642V1.62541Z" stroke="black" mask="url(#path-1-outside-1_305_3666)"/>
<path d="M138.139 22.7329C143.427 22.7329 147.68 18.3941 147.68 13C147.68 7.64495 143.427 3.30619 138.139 3.30619C132.89 3.30619 128.638 7.64495 128.638 13C128.638 18.3941 132.89 22.7329 138.139 22.7329ZM138.139 25C131.664 25 126.416 19.645 126.416 13C126.416 6.39414 131.664 1 138.139 1C144.653 1 149.902 6.39414 149.902 13C149.902 19.645 144.653 25 138.139 25Z" stroke="black" mask="url(#path-1-outside-1_305_3666)"/>
<path d="M190.291 13.0391C190.291 19.2932 185.234 24.4528 179.104 24.4528H172.935V22.1857H179.104C184.008 22.1857 188.069 18.0423 188.069 13.0391C188.069 7.99674 184.008 3.85342 179.104 3.85342H172.935V1.62541H179.717C185.578 1.93811 190.291 6.94137 190.291 13.0391Z" stroke="black" mask="url(#path-1-outside-1_305_3666)"/>
<path d="M222.514 11.3192C222.705 11.7101 223.05 11.9055 223.471 11.9055H225.847C226.23 11.9055 226.613 11.7101 226.805 11.3192L230.483 4.83062L231.326 3.30619C231.939 2.21173 233.012 1.62541 234.238 1.62541H236V3.89251H234.238C233.816 3.89251 233.471 4.08795 233.28 4.43974L230.559 9.24756L229.142 11.7101L228.72 12.4528V12.4919C228.107 13.5472 227.073 14.1726 225.847 14.1726H225.77V24.4528H223.548V14.1726H223.471C222.245 14.1726 221.173 13.5472 220.56 12.4919V12.4528L219.41 10.4202L218.989 9.67752L216.039 4.43974C215.809 4.08795 215.464 3.89251 215.043 3.89251H213.318V1.62541H215.081C216.307 1.62541 217.341 2.21173 217.954 3.30619L218.836 4.83062L222.514 11.3192Z" stroke="black" mask="url(#path-1-outside-1_305_3666)"/>
</svg>
