<svg width="71" height="70" viewBox="0 0 71 70" fill="none" xmlns="http://www.w3.org/2000/svg">
<rect x="0.5" width="70" height="70" rx="35" fill="#1DB954"/>
<path d="M50.5 49.1L29.4897 49.1V52H50.5V49.1ZM34.7808 39.65H34.7295L32.0582 41.15L31.0822 41.7L24.1986 45.55C23.7363 45.85 23.4795 46.3 23.4795 46.85L23.4795 52H20.5L20.5 46.85C20.5 45.2 21.2706 43.85 22.7089 43.05L24.7123 41.9L33.2397 37.1C33.7534 36.85 34.0103 36.4 34.0103 35.85L34.0103 34.15C34.0103 33.6 33.7534 33.15 33.2397 32.9L24.7123 28.1L22.7089 26.95C21.2706 26.15 20.5 24.8 20.5 23.2L20.5 18L50.5 18V20.9L23.4795 20.9V23.2C23.4795 23.7 23.7363 24.2 24.1986 24.45L30.5171 28L33.7534 29.8L34.7295 30.35L34.7808 30.4C36.1678 31.2 36.9897 32.55 36.9897 34.15V35.85C36.9897 37.45 36.1678 38.85 34.7808 39.65Z" fill="white"/>
</svg>
