<svg width="22" height="17" viewBox="0 0 22 17" fill="none" xmlns="http://www.w3.org/2000/svg">
<path d="M1.25 4.75H20.75M1.25 5.5H20.75M4.25 10.75H10.25M4.25 13H7.25M3.5 16H18.5C19.0967 16 19.669 15.7629 20.091 15.341C20.5129 14.919 20.75 14.3467 20.75 13.75V3.25C20.75 2.65326 20.5129 2.08097 20.091 1.65901C19.669 1.23705 19.0967 1 18.5 1H3.5C2.90326 1 2.33097 1.23705 1.90901 1.65901C1.48705 2.08097 1.25 2.65326 1.25 3.25V13.75C1.25 14.3467 1.48705 14.919 1.90901 15.341C2.33097 15.7629 2.90326 16 3.5 16Z" stroke="white" stroke-width="1.5" stroke-linecap="round" stroke-linejoin="round"/>
</svg>
