<svg width="22" height="22" viewBox="0 0 22 22" fill="none" xmlns="http://www.w3.org/2000/svg">
<path d="M3.5 9H18.5M3.5 9.6H18.5M5.80769 13.8H10.4231M5.80769 15.6H8.11538M5.23077 18H16.7692C17.2283 18 17.6685 17.8104 17.9931 17.4728C18.3177 17.1352 18.5 16.6774 18.5 16.2V7.8C18.5 7.32261 18.3177 6.86477 17.9931 6.52721C17.6685 6.18964 17.2283 6 16.7692 6H5.23077C4.77174 6 4.33151 6.18964 4.00693 6.52721C3.68235 6.86477 3.5 7.32261 3.5 7.8V16.2C3.5 16.6774 3.68235 17.1352 4.00693 17.4728C4.33151 17.8104 4.77174 18 5.23077 18Z" stroke="white" stroke-linecap="round" stroke-linejoin="round"/>
</svg>
