<svg width="32" height="31" viewBox="0 0 32 31" fill="none" xmlns="http://www.w3.org/2000/svg">
<path d="M3.25 10.1884C3.25 9.05804 4.47068 8.34892 5.45193 8.9102L14.7516 14.2234C14.977 14.352 15.1644 14.5381 15.2947 14.7626C15.4251 14.9871 15.4937 15.242 15.4937 15.5016C15.4937 15.7612 15.4251 16.0161 15.2947 16.2406C15.1644 16.4651 14.977 16.6511 14.7516 16.7798L5.45193 22.093C5.22807 22.2209 4.97455 22.2877 4.71674 22.2868C4.45893 22.2859 4.20589 22.2173 3.98292 22.0879C3.75996 21.9584 3.57491 21.7727 3.44628 21.5493C3.31765 21.3259 3.24997 21.0726 3.25 20.8148V10.1884ZM16.0063 10.1884C16.0063 9.05804 17.227 8.34892 18.2082 8.9102L27.5079 14.2234C27.7333 14.352 27.9207 14.5381 28.051 14.7626C28.1814 14.9871 28.25 15.242 28.25 15.5016C28.25 15.7612 28.1814 16.0161 28.051 16.2406C27.9207 16.4651 27.7333 16.6511 27.5079 16.7798L18.2082 22.093C17.9843 22.2209 17.7308 22.2877 17.473 22.2868C17.2152 22.2859 16.9622 22.2173 16.7392 22.0879C16.5162 21.9584 16.3312 21.7727 16.2026 21.5493C16.0739 21.3259 16.0062 21.0726 16.0063 20.8148V10.1884Z" stroke="black" stroke-width="1.5" stroke-linecap="round" stroke-linejoin="round"/>
</svg>
