<svg width="19" height="12" viewBox="0 0 19 12" fill="none" xmlns="http://www.w3.org/2000/svg">
<path d="M2.288 0.818C2.06071 0.677676 1.80008 0.600591 1.53303 0.594709C1.26598 0.588827 1.00221 0.654363 0.768961 0.784543C0.535717 0.914724 0.341466 1.10483 0.206281 1.33521C0.0710969 1.56559 -0.000116551 1.82789 1.43186e-07 2.095V9.905C6.15165e-05 10.172 0.0714045 10.4342 0.206661 10.6644C0.341918 10.8947 0.536184 11.0846 0.769398 11.2147C1.00261 11.3448 1.26632 11.4102 1.53328 11.4043C1.80024 11.3984 2.06079 11.3213 2.288 11.181L8.611 7.276C8.766 7.18 8.896 7.063 9 6.932V9.905C9.00006 10.172 9.0714 10.4342 9.20666 10.6644C9.34192 10.8947 9.53618 11.0846 9.7694 11.2147C10.0026 11.3448 10.2663 11.4102 10.5333 11.4043C10.8002 11.3984 11.0608 11.3213 11.288 11.181L17.611 7.276C17.8285 7.14158 18.008 6.95379 18.1326 6.73047C18.2571 6.50714 18.3224 6.25569 18.3224 6C18.3224 5.74431 18.2571 5.49286 18.1326 5.26953C18.008 5.04621 17.8285 4.85842 17.611 4.724L11.288 0.818C11.0607 0.677676 10.8001 0.600591 10.533 0.594709C10.266 0.588827 10.0022 0.654363 9.76896 0.784543C9.53572 0.914724 9.34146 1.10483 9.20628 1.33521C9.0711 1.56559 8.99988 1.82789 9 2.095V5.067C8.89114 4.93103 8.75953 4.81498 8.611 4.724L2.288 0.818Z" fill="black"/>
</svg>
