<svg width="22" height="24" viewBox="0 0 22 24" fill="none" xmlns="http://www.w3.org/2000/svg">
<path d="M14.5711 18.3525C16.9001 18.0767 19.1884 17.5271 21.3886 16.715C19.5253 14.651 18.4957 11.9681 18.4999 9.1875V8.25C18.4999 6.26088 17.7097 4.35322 16.3032 2.9467C14.8966 1.54018 12.989 0.75 10.9999 0.75C9.01074 0.75 7.10309 1.54018 5.69656 2.9467C4.29004 4.35322 3.49986 6.26088 3.49986 8.25V9.1875C3.50363 11.9683 2.4736 14.6512 0.609863 16.715C2.77611 17.515 5.05986 18.0713 7.42861 18.3525M14.5711 18.3525C12.1986 18.6339 9.80113 18.6339 7.42861 18.3525M14.5711 18.3525C14.7512 18.9148 14.796 19.5117 14.7018 20.0947C14.6077 20.6776 14.3772 21.23 14.0291 21.707C13.681 22.184 13.2252 22.572 12.6989 22.8395C12.1725 23.107 11.5903 23.2465 10.9999 23.2465C10.4094 23.2465 9.82727 23.107 9.30087 22.8395C8.77448 22.572 8.3187 22.184 7.97064 21.707C7.62258 21.23 7.39207 20.6776 7.29788 20.0947C7.20369 19.5117 7.24848 18.9148 7.42861 18.3525" stroke="black" stroke-linecap="round" stroke-linejoin="round"/>
</svg>
