<svg width="20" height="24" viewBox="0 0 20 24" fill="none" xmlns="http://www.w3.org/2000/svg">
<path d="M12.7037 21.4875C12.3687 21.9561 11.93 22.3373 11.4233 22.6002C10.9166 22.863 10.3563 23 9.78798 23C9.21964 23 8.65933 22.863 8.15266 22.6002C7.646 22.3373 7.2073 21.9561 6.87229 21.4875M7.61377 2.38047C8.34112 2.13379 9.10892 2.00466 9.88976 2.00466C10.6706 2.00466 11.4384 2.13379 12.1658 2.38047M7.61377 2.38047C6.5577 2.73863 5.58689 3.34459 4.78522 4.16289C3.43141 5.54478 2.67085 7.41903 2.67085 9.37331V10.2944C2.67317 12.0437 2.26754 13.7537 1.50452 15.2897C0.88139 16.5442 1.29758 18.2154 2.65208 18.5721C3.88862 18.8978 5.15729 19.1419 6.45236 19.2989C8.73596 19.5754 11.0436 19.5754 13.3272 19.2989C14.6092 19.144 15.8784 18.901 17.1262 18.5722C18.4807 18.2152 18.8971 16.544 18.2742 15.2894C17.5115 13.7534 17.1061 12.0436 17.1087 10.2944V9.37331C17.1087 7.41903 16.3481 5.54478 14.9943 4.16289C14.1926 3.34459 13.2218 2.73863 12.1658 2.38047M7.61377 2.38047C7.93123 1.92031 8.85186 1 9.99472 1C11.1376 1 11.9183 1.92031 12.1658 2.38047" stroke="black" stroke-width="1.5" stroke-linecap="round" stroke-linejoin="round"/>
</svg>
