<svg width="27" height="31" viewBox="0 0 27 31" fill="none" xmlns="http://www.w3.org/2000/svg">
<path fill-rule="evenodd" clip-rule="evenodd" d="M0 6.86764C0 6.10988 0.30102 5.38315 0.836838 4.84734C1.37266 4.31152 2.09938 4.0105 2.85714 4.0105H4.16381C4.98286 4.0105 5.69714 4.56859 5.89619 5.36288L6.94857 9.57526C7.03385 9.91621 7.01663 10.2747 6.89905 10.6059C6.78148 10.9372 6.56879 11.2263 6.28762 11.4372L5.05619 12.361C4.92762 12.4572 4.9 12.5981 4.93619 12.6962C5.47369 14.158 6.32247 15.4855 7.42376 16.5867C8.52504 17.688 9.85252 18.5368 11.3143 19.0743C11.4124 19.1105 11.5524 19.0829 11.6495 18.9543L12.5733 17.7229C12.7842 17.4417 13.0733 17.229 13.4045 17.1114C13.7358 16.9939 14.0943 16.9766 14.4352 17.0619L18.6476 18.1143C19.4419 18.3134 20 19.0276 20 19.8476V21.1534C20 21.9111 19.699 22.6378 19.1632 23.1737C18.6273 23.7095 17.9006 24.0105 17.1429 24.0105H15C6.71619 24.0105 0 17.2943 0 9.0105V6.86764Z" fill="#535353"/>
</svg>
