<svg width="25" height="25" viewBox="0 0 25 25" fill="none" xmlns="http://www.w3.org/2000/svg">
<path d="M16.3889 12.0189C16.7593 12.2327 16.7593 12.7673 16.3889 12.9811L10.9722 16.1084C10.6019 16.3223 10.1389 16.055 10.1389 15.6273V9.37269C10.1389 8.94502 10.6019 8.67773 10.9722 8.89156L16.3889 12.0189Z" fill="white"/>
<path d="M12.5 0.5C19.1274 0.5 24.5 5.87258 24.5 12.5C24.5 19.1274 19.1274 24.5 12.5 24.5C5.87258 24.5 0.5 19.1274 0.5 12.5C0.5 5.87258 5.87258 0.5 12.5 0.5ZM9.63867 15.627C9.63867 16.3888 10.4123 16.8836 11.0889 16.6074L11.2227 16.541L16.6387 13.4141C17.2984 13.0332 17.3399 12.1168 16.7627 11.6689L16.6387 11.5859L11.2227 8.45898C10.519 8.0527 9.63867 8.56048 9.63867 9.37305V15.627ZM10.6455 9.34473C10.6496 9.33795 10.657 9.33001 10.667 9.32422C10.6768 9.31864 10.6866 9.31657 10.6943 9.31641L10.7227 9.32422L16.1387 12.4521C16.1513 12.4594 16.1571 12.4661 16.1602 12.4717C16.164 12.4786 16.167 12.4884 16.167 12.5C16.167 12.5116 16.164 12.5214 16.1602 12.5283L16.1387 12.5479L10.7227 15.6758C10.71 15.6831 10.7007 15.6837 10.6943 15.6836C10.6866 15.6834 10.6768 15.6814 10.667 15.6758C10.657 15.67 10.6496 15.6621 10.6455 15.6553C10.6423 15.6498 10.6387 15.6414 10.6387 15.627V9.37305C10.6387 9.35861 10.6423 9.35019 10.6455 9.34473Z" stroke="black"/>
</svg>
