<svg width="31" height="31" viewBox="0 0 31 31" fill="none" xmlns="http://www.w3.org/2000/svg">
<path d="M28.25 10.1884C28.25 9.05804 27.0293 8.34892 26.0481 8.9102L16.7484 14.2234C16.523 14.352 16.3356 14.5381 16.2053 14.7626C16.0749 14.9871 16.0063 15.242 16.0063 15.5016C16.0063 15.7612 16.0749 16.0161 16.2053 16.2406C16.3356 16.4651 16.523 16.6511 16.7484 16.7798L26.0481 22.093C26.2719 22.2209 26.5255 22.2877 26.7833 22.2868C27.0411 22.2859 27.2941 22.2173 27.5171 22.0879C27.74 21.9584 27.9251 21.7727 28.0537 21.5493C28.1823 21.3259 28.25 21.0726 28.25 20.8148V10.1884ZM15.4937 10.1884C15.4937 9.05804 14.273 8.34892 13.2918 8.9102L3.99214 14.2234C3.76671 14.352 3.57932 14.5381 3.44898 14.7626C3.31865 14.9871 3.25 15.242 3.25 15.5016C3.25 15.7612 3.31865 16.0161 3.44898 16.2406C3.57932 16.4651 3.76671 16.6511 3.99214 16.7798L13.2918 22.093C13.5157 22.2209 13.7692 22.2877 14.027 22.2868C14.2848 22.2859 14.5378 22.2173 14.7608 22.0879C14.9838 21.9584 15.1688 21.7727 15.2974 21.5493C15.4261 21.3259 15.4938 21.0726 15.4937 20.8148V10.1884Z" stroke="black" stroke-width="1.5" stroke-linecap="round" stroke-linejoin="round"/>
</svg>
