<svg width="30" height="31" viewBox="0 0 30 31" fill="none" xmlns="http://www.w3.org/2000/svg">
<path d="M18.7932 12.9993H23.5L20.5007 9.99809C19.5351 9.03247 18.3323 8.33806 17.0132 7.98468C15.6942 7.63131 14.3053 7.63141 12.9863 7.98498C11.6673 8.33856 10.4646 9.03314 9.49909 9.99891C8.53362 10.9647 7.83941 12.1676 7.48625 13.4867M6.5 22.7071V18.0003M6.5 18.0003H11.2068M6.5 18.0003L9.49834 21.0014C10.4639 21.967 11.6667 22.6614 12.9858 23.0148C14.3049 23.3682 15.6938 23.3681 17.0128 23.0145C18.3318 22.661 19.5345 21.9664 20.5 21.0006C21.4654 20.0348 22.1596 18.8319 22.5128 17.5128M23.5 8.29243V12.9974" stroke="black" stroke-width="1.5" stroke-linecap="round" stroke-linejoin="round"/>
</svg>
