<svg width="22" height="24" viewBox="0 0 22 24" fill="none" xmlns="http://www.w3.org/2000/svg">
<path d="M7.01002 11.0741C6.80846 10.7115 6.49218 10.426 6.11083 10.2625C5.72947 10.0991 5.30462 10.0668 4.90298 10.171C4.50134 10.2751 4.14563 10.5096 3.89171 10.8377C3.63778 11.1659 3.5 11.5691 3.5 11.984C3.5 12.3989 3.63778 12.8021 3.89171 13.1302C4.14563 13.4583 4.50134 13.6929 4.90298 13.797C5.30462 13.9011 5.72947 13.8689 6.11083 13.7054C6.49218 13.5419 6.80846 13.2565 7.01002 12.8938M7.01002 11.0741C7.15986 11.3438 7.24559 11.6535 7.24559 11.984C7.24559 12.3144 7.15986 12.6249 7.01002 12.8938M7.01002 11.0741L14.9729 6.6507M7.01002 12.8938L14.9729 17.3172M14.9729 6.6507C15.0896 6.87057 15.249 7.06496 15.4418 7.22251C15.6345 7.38005 15.8568 7.49759 16.0955 7.56825C16.3342 7.63891 16.5846 7.66127 16.832 7.63402C17.0795 7.60678 17.319 7.53048 17.5366 7.40958C17.7543 7.28868 17.9456 7.12561 18.0995 6.9299C18.2533 6.7342 18.3666 6.50978 18.4327 6.26978C18.4989 6.02977 18.5165 5.77899 18.4845 5.5321C18.4526 5.28521 18.3718 5.04717 18.2468 4.83188C18.0004 4.40763 17.5975 4.09697 17.1245 3.96668C16.6515 3.83639 16.1463 3.89687 15.7175 4.13511C15.2887 4.37336 14.9704 4.77035 14.8312 5.24076C14.6919 5.71116 14.7428 6.21742 14.9729 6.6507ZM14.9729 17.3172C14.8534 17.5323 14.7775 17.7688 14.7494 18.0132C14.7213 18.2577 14.7416 18.5052 14.8092 18.7418C14.8768 18.9784 14.9904 19.1993 15.1433 19.392C15.2963 19.5847 15.4857 19.7454 15.7008 19.8648C15.9159 19.9843 16.1524 20.0603 16.3968 20.0883C16.6413 20.1164 16.8888 20.0961 17.1254 20.0285C17.362 19.9609 17.5829 19.8474 17.7756 19.6944C17.9683 19.5414 18.1289 19.352 18.2484 19.1369C18.4897 18.7025 18.5486 18.1901 18.4121 17.7123C18.2756 17.2346 17.9548 16.8306 17.5205 16.5893C17.0861 16.348 16.5737 16.2891 16.0959 16.4256C15.6181 16.5622 15.2142 16.8829 14.9729 17.3172Z" stroke="black" stroke-width="1.5" stroke-linecap="round" stroke-linejoin="round"/>
</svg>
