<svg width="343" height="343" viewBox="0 0 343 343" fill="none" xmlns="http://www.w3.org/2000/svg">
<path d="M52.9181 115.433C51.2606 110.983 50.9603 106.141 52.0551 101.519C53.1498 96.898 55.5905 92.7052 59.0684 89.4711C62.5463 86.2371 66.9051 84.1071 71.5936 83.3506C76.2822 82.594 81.0897 83.2449 85.4083 85.2209C89.7269 87.1969 93.3624 90.4092 95.8552 94.4516C98.3479 98.494 99.5859 103.185 99.4124 107.931C99.239 112.677 97.662 117.265 94.8808 121.114C92.0997 124.964 88.2393 127.902 83.7881 129.558C77.8213 131.777 71.2175 131.536 65.4286 128.887C59.6397 126.238 55.1397 121.399 52.9181 115.433Z" fill="#EBEBEB"/>
<path d="M87.9041 108.635C85.1601 116.311 77.0927 121.621 77.0927 121.621C77.0927 121.621 68.0306 118.314 63.5854 111.475C59.881 105.774 61.0197 99.0103 65.5816 97.0278C72.1192 94.1809 75.2405 105.788 75.2405 105.788C75.2405 105.788 75.6041 93.7762 82.6287 95.0315C87.5268 95.9096 90.1884 102.214 87.9041 108.635Z" fill="white"/>
<path d="M278.42 207.398C273.895 209.69 268.76 210.49 263.752 209.683C258.744 208.876 254.12 206.504 250.544 202.906C246.967 199.308 244.622 194.671 243.845 189.658C243.068 184.645 243.898 179.515 246.217 175.004C248.536 170.492 252.224 166.831 256.752 164.545C261.281 162.259 266.417 161.466 271.424 162.28C276.431 163.094 281.051 165.472 284.623 169.075C288.194 172.677 290.533 177.318 291.303 182.332C292.103 187.337 291.285 192.468 288.968 196.976C286.651 201.484 282.956 205.136 278.42 207.398Z" fill="#EBEBEB"/>
<path d="M275.086 183.889C274.963 185.328 274.416 186.697 273.514 187.824C272.612 188.952 271.396 189.787 270.02 190.223C268.644 190.659 267.169 190.678 265.783 190.276C264.396 189.875 263.16 189.071 262.23 187.966C261.3 186.862 260.719 185.507 260.559 184.072C260.4 182.637 260.669 181.187 261.334 179.905C261.999 178.624 263.028 177.568 264.293 176.872C265.558 176.175 267 175.87 268.439 175.993C270.367 176.159 272.151 177.084 273.397 178.565C274.644 180.045 275.251 181.961 275.086 183.889Z" fill="white"/>
<path d="M278.674 204.428L278.42 207.426C274.445 209.439 269.987 210.302 265.547 209.919C261.108 209.536 256.864 207.922 253.292 205.258L253.546 202.274C253.831 198.942 255.429 195.859 257.987 193.705C260.545 191.551 263.855 190.501 267.187 190.787C270.519 191.072 273.601 192.67 275.755 195.228C277.91 197.787 278.959 201.096 278.674 204.428Z" fill="white"/>
<path d="M232.789 88.7568C245.731 82.1112 250.835 66.2323 244.19 53.2903C237.544 40.3483 221.665 35.2441 208.723 41.8897C195.781 48.5352 190.677 64.4141 197.322 77.3561C203.968 90.2981 219.847 95.4024 232.789 88.7568Z" fill="#EBEBEB"/>
<path fill-rule="evenodd" clip-rule="evenodd" d="M217.16 75.7893C216.474 75.3503 215.857 74.7123 214.924 74.8015C214.567 74.8015 214.643 74.5408 214.643 74.3487C214.643 70.8364 214.643 67.3309 214.643 63.8186C214.643 63.5648 214.643 63.359 214.938 63.2149C217.62 61.8429 218.779 59.2087 220.426 56.9312C221.268 55.8033 221.874 54.5175 222.209 53.1504C222.543 51.7833 222.6 50.3628 222.374 48.9736C222.257 48.1847 222.628 47.8279 223.341 47.6702C223.698 47.5459 224.085 47.5395 224.446 47.6519C224.806 47.7643 225.121 47.9895 225.344 48.2944C226.113 49.7303 226.63 51.2871 226.874 52.8975C227.025 54.2283 226.551 55.5249 226.387 56.8351C226.263 57.8024 226.037 58.7559 225.852 59.73C226.092 59.9015 226.359 59.8124 226.613 59.8124H235.531C236.78 59.8124 237.39 60.1691 237.589 60.9991C237.686 61.51 237.612 62.0384 237.379 62.5031C237.146 62.9679 236.767 63.3433 236.3 63.5716C236.08 63.6814 235.675 63.5716 235.648 63.9284C235.62 64.2851 236.039 64.2439 236.238 64.388C237.315 65.122 237.116 66.6449 235.874 67.5161C235.572 67.7288 234.996 67.6328 234.982 68.0718C234.969 68.5108 235.518 68.4148 235.758 68.6617C236.629 69.5192 236.197 71.1176 234.9 71.7625C234.722 71.8174 234.548 71.8839 234.379 71.9614C234.235 72.0643 234.091 72.1741 234.379 72.373C235.662 73.2923 235.634 74.5682 234.338 75.5012L233.953 75.7756C233.483 76.0575 232.934 76.178 232.389 76.1186C227.743 76.1186 223.096 76.1186 218.45 76.1186C218.224 76.1544 217.993 76.1437 217.771 76.087C217.549 76.0304 217.341 75.9291 217.16 75.7893Z" fill="white"/>
<path fill-rule="evenodd" clip-rule="evenodd" d="M203.941 69.6016C203.941 67.3721 203.941 65.1357 203.941 62.9131C203.941 62.4603 203.989 62.2271 204.545 62.2271C207.261 62.2636 209.98 62.2636 212.701 62.2271C213.229 62.2271 213.312 62.4054 213.312 62.9131C213.312 67.3995 213.312 71.8859 213.312 76.3724C213.312 76.9486 213.161 77.1064 212.591 77.0995C209.95 77.0995 207.316 77.0995 204.675 77.0995C203.989 77.0995 203.934 76.88 203.941 76.3038C203.962 74.088 203.941 71.8311 203.941 69.6016Z" fill="white"/>
<path d="M117.176 187.388L67.1045 208.715L49.0627 166.362L67.324 139.807L99.1339 145.034L117.176 187.388Z" fill="#1DB954"/>
<path opacity="0.2" d="M117.176 187.388L67.1045 208.715L49.0627 166.362L67.324 139.807L99.1339 145.034L117.176 187.388Z" fill="black"/>
<path d="M114.178 188.177L69.7525 207.097L46.0512 151.455L79.0341 137.399L95.1002 143.395L114.178 188.177Z" fill="#EBEBEB"/>
<path d="M79.0341 137.399L95.1002 143.395L83.6577 148.265L79.0341 137.399Z" fill="#DBDBDB"/>
<path d="M55.0909 160.626L79.7874 150.108L79.1637 148.644L54.4673 159.162L55.0909 160.626Z" fill="#DBDBDB"/>
<path d="M56.6631 164.326L81.3595 153.807L80.7359 152.343L56.0395 162.861L56.6631 164.326Z" fill="#DBDBDB"/>
<path d="M58.2443 168.022L82.9408 157.503L82.3171 156.039L57.6207 166.557L58.2443 168.022Z" fill="#DBDBDB"/>
<path d="M59.8048 171.717L95.9943 156.303L95.3706 154.839L59.1811 170.253L59.8048 171.717Z" fill="#DBDBDB"/>
<path d="M61.3797 175.416L97.5692 160.002L96.9455 158.538L60.756 173.951L61.3797 175.416Z" fill="#DBDBDB"/>
<path d="M62.9582 179.112L99.1477 163.698L98.524 162.234L62.3345 177.648L62.9582 179.112Z" fill="#DBDBDB"/>
<path d="M64.5304 182.804L100.72 167.391L100.096 165.927L63.9068 181.34L64.5304 182.804Z" fill="#DBDBDB"/>
<path d="M66.1089 186.501L102.298 171.087L101.675 169.623L65.4853 185.037L66.1089 186.501Z" fill="#DBDBDB"/>
<path d="M67.6769 190.199L103.866 174.786L103.243 173.322L67.0533 188.735L67.6769 190.199Z" fill="#DBDBDB"/>
<path d="M69.2554 193.896L105.445 178.482L104.821 177.018L68.6318 192.432L69.2554 193.896Z" fill="#DBDBDB"/>
<path d="M70.8277 197.588L107.017 182.174L106.393 180.71L70.204 196.124L70.8277 197.588Z" fill="#DBDBDB"/>
<path d="M72.4062 201.278L108.596 185.864L107.972 184.4L71.7825 199.814L72.4062 201.278Z" fill="#DBDBDB"/>
<path d="M103.648 155.64L117.176 187.388L67.0977 208.715L53.5835 176.988C56.252 177.29 58.9068 177.674 61.5685 178.01C64.2302 178.346 66.8919 178.744 69.5467 179.142C72.5056 179.567 75.4783 180.025 78.4647 180.514L78.5196 180.432C78.5196 180.432 78.5196 180.487 78.4784 180.514L85.1326 181.557C86.4154 179.718 87.6914 177.866 88.9811 176.034C88.9811 176.034 88.933 176.034 88.8987 176.034H88.9948C90.7098 173.579 92.4362 171.132 94.1741 168.694C95.7336 166.513 97.3022 164.338 98.88 162.17C100.451 159.948 102.015 157.78 103.648 155.64Z" fill="#1DB954"/>
<g opacity="0.2">
<path d="M103.648 155.64C102.235 157.917 100.753 160.16 99.3122 162.424C97.8716 164.688 96.3624 166.911 94.8738 169.147C93.3852 171.383 91.7456 173.805 90.1747 176.117L90.0375 176.336L85.8323 182.476L85.6197 182.771L85.2698 182.716C82.8208 182.311 80.3855 181.9 77.9433 181.481L77.6826 181.44C74.9386 180.974 72.1946 180.5 69.3958 180C66.7615 179.533 64.1204 179.039 61.4793 178.545C58.8382 178.051 56.2108 177.53 53.5835 176.974C56.252 177.276 58.9068 177.66 61.5685 177.996C64.2302 178.333 66.8919 178.73 69.5467 179.128C72.5056 179.554 75.4783 180.011 78.4647 180.5L85.1189 181.543C86.4017 179.705 87.6777 177.852 88.9673 176.021C90.6823 173.565 92.4088 171.118 94.1466 168.681C95.7062 166.499 97.2748 164.324 98.8526 162.157C100.451 159.948 102.015 157.78 103.648 155.64Z" fill="black"/>
<path d="M78.4853 180.418C78.4853 180.418 78.4853 180.473 78.4441 180.5C78.2795 180.836 78.1148 181.186 77.9433 181.502C77.1407 183.1 76.2832 184.664 75.3983 186.201C74.3212 188.101 73.1825 189.96 72.0369 191.819C70.8912 193.678 69.7045 195.489 68.4697 197.307C67.2349 199.125 65.9863 200.895 64.6349 202.617C65.5816 200.641 66.638 198.727 67.7151 196.834C68.7921 194.941 69.9308 193.075 71.0696 191.222C72.2084 189.37 73.4089 187.546 74.6437 185.734C75.6178 184.294 76.6262 182.86 77.6826 181.468C77.9296 181.145 78.1766 180.823 78.4304 180.507L78.4853 180.418Z" fill="black"/>
<path d="M114.459 181.351C112.278 181.131 110.117 180.802 107.97 180.439C105.822 180.075 103.682 179.65 101.542 179.224C99.4014 178.799 97.2817 178.291 95.1688 177.756C93.4469 177.324 91.7388 176.865 90.0375 176.336L88.9468 175.993C88.9468 175.993 88.8987 175.993 88.8644 175.993H88.9605C89.3721 176.041 89.77 176.082 90.1747 176.137C91.9103 176.336 93.6047 176.604 95.354 176.892C97.508 177.256 99.6415 177.681 101.775 178.12C103.908 178.559 106.035 179.053 108.148 179.588C110.261 180.123 112.374 180.665 114.459 181.351Z" fill="black"/>
</g>
<path d="M226.147 136.363L233.672 133.4L225.083 111.592L215.555 115.344L226.147 136.363Z" fill="#1DB954"/>
<path d="M215.555 115.344L219.595 123.363L226.147 136.363L233.679 133.4L225.083 111.592L215.555 115.344Z" fill="#1DB954"/>
<path opacity="0.1" d="M215.555 115.344L219.595 123.363L228.363 119.906L225.083 111.592L215.555 115.344Z" fill="black"/>
<path d="M215.936 118.939L227.787 114.268L224.238 105.263L212.386 109.933L215.936 118.939Z" fill="#1DB954"/>
<path d="M203.152 109.746L212.729 107.037L206.987 92.4659L198.137 97.0141L203.152 109.746Z" fill="#1DB954"/>
<path d="M210.588 87.712L219.06 109.218L235.243 104.979L276.376 104.046L256.022 52.3967L225.31 79.7749L210.588 87.712Z" fill="#1DB954"/>
<path d="M277.266 103.819C281.873 102.003 281.029 88.913 275.381 74.5812C269.732 60.2493 261.419 50.1029 256.812 51.9185C252.205 53.7342 253.049 66.8243 258.697 81.1562C264.346 95.488 272.659 105.634 277.266 103.819Z" fill="#1DB954"/>
<path opacity="0.2" d="M276.372 100.295C280.143 98.809 279.135 87.2888 274.12 74.5642C269.106 61.8397 261.983 52.7294 258.211 54.2158C254.44 55.7022 255.448 67.2224 260.462 79.947C265.477 92.6715 272.6 101.782 276.372 100.295Z" fill="black"/>
<path d="M261.579 79.528C262.265 81.2224 262.951 82.8551 263.685 84.3986C264.683 84.7173 265.751 84.7459 266.765 84.481C267.778 84.2161 268.696 83.6686 269.411 82.9022C270.125 82.1359 270.607 81.1823 270.801 80.1526C270.994 79.1228 270.891 78.0593 270.504 77.0858L269.543 74.6505C269.163 73.6793 268.516 72.8353 267.677 72.216C266.838 71.5967 265.841 71.2274 264.801 71.1506C263.761 71.0739 262.72 71.2928 261.799 71.7823C260.878 72.2717 260.115 73.0116 259.596 73.9165C260.159 75.7413 260.824 77.6209 261.579 79.528Z" fill="#1DB954"/>
<path d="M211.192 113.698L229.7 108.457L218.601 80.2757L201.492 89.0702L211.192 113.698Z" fill="#1DB954"/>
<path opacity="0.2" d="M211.192 113.698L229.7 108.457L218.601 80.2757L201.492 89.0702L211.192 113.698Z" fill="black"/>
<path opacity="0.2" d="M255 56.89C254.401 58.8898 254.169 60.9814 254.314 63.064C254.396 65.1543 254.644 67.2348 255.055 69.286C255.233 70.3218 255.508 71.344 255.741 72.3524C255.974 73.3608 256.297 74.3692 256.612 75.3639C256.928 76.3586 257.243 77.3602 257.607 78.3412C257.97 79.3222 258.293 80.31 258.704 81.2841C260.226 85.1849 262.1 88.9391 264.302 92.5002C265.421 94.2727 266.692 95.9437 268.103 97.4943C269.486 99.0772 271.191 100.347 273.103 101.219C271.253 100.254 269.619 98.9207 268.301 97.3022C266.949 95.7269 265.735 94.0376 264.673 92.2533C262.543 88.6844 260.726 84.9387 259.239 81.0577C257.658 77.215 256.399 73.2477 255.473 69.1968C255.005 67.1662 254.698 65.1018 254.554 63.0228C254.347 60.9681 254.497 58.893 255 56.89Z" fill="black"/>
<path d="M273.934 52.3693C273.151 53.3022 272.411 54.2695 271.683 55.2367C270.956 56.204 270.25 57.1987 269.55 58.1934C268.85 59.1881 268.178 60.1965 267.492 61.2187L266.511 62.7622C266.202 63.2835 265.88 63.798 265.585 64.3331C265.983 63.8666 266.346 63.3864 266.731 62.9131L267.835 61.4588C268.576 60.4915 269.276 59.5037 269.968 58.509C270.661 57.5143 271.34 56.5058 272.026 55.4768C272.712 54.4478 273.337 53.4326 273.934 52.3693Z" fill="#263238"/>
<path d="M274.4 88.5558C275.772 88.6312 277.144 88.6449 278.516 88.6518C279.888 88.6587 281.26 88.6518 282.632 88.5969C284.004 88.542 285.376 88.5009 286.748 88.4117L288.806 88.2745C289.492 88.2128 290.178 88.1647 290.864 88.0824C290.178 88.0413 289.492 88.0344 288.806 88.007H286.748C285.376 88.007 284.004 88.007 282.632 88.0618C281.26 88.1167 279.888 88.1579 278.516 88.2471C277.144 88.3362 275.772 88.4048 274.4 88.5558Z" fill="#263238"/>
<path d="M298.163 78.842C296.16 79.0889 294.171 79.3976 292.181 79.7063C290.192 80.015 288.202 80.3923 286.22 80.7216C284.237 81.0509 282.262 81.4488 280.286 81.8535L277.329 82.4641C276.348 82.6904 275.36 82.8962 274.379 83.1501C275.381 83.0334 276.376 82.8825 277.377 82.7453L280.361 82.2857C282.351 81.977 284.34 81.5997 286.323 81.2773C288.305 80.9549 290.281 80.5433 292.257 80.1385C294.232 79.7338 296.201 79.3153 298.163 78.842Z" fill="#263238"/>
<path d="M285.033 50.517C283.572 51.9439 282.145 53.412 280.732 54.8869C279.319 56.3618 277.926 57.8504 276.54 59.3527C275.155 60.855 273.796 62.3643 272.424 63.9009L270.408 66.2127C269.722 66.9947 269.077 67.7631 268.432 68.5588C269.173 67.8728 269.879 67.1114 270.606 66.3911L272.733 64.189C274.153 62.721 275.546 61.2255 276.931 59.7231C278.317 58.2208 279.675 56.7047 281.047 55.1681C282.419 53.6315 283.736 52.0948 285.033 50.517Z" fill="#263238"/>
<path d="M272.04 75.6864C274.27 74.9043 276.472 74.0674 278.674 73.2236C280.876 72.3798 283.057 71.4881 285.253 70.6168C287.448 69.7456 289.615 68.8264 291.783 67.8728L295.035 66.5008C296.112 66.0206 297.189 65.5473 298.259 65.0465C297.148 65.4307 296.043 65.8491 294.932 66.2539L291.625 67.5161C289.423 68.3599 287.242 69.2517 285.047 70.116C282.852 70.9804 280.684 71.9065 278.516 72.86C276.348 73.8136 274.18 74.6985 272.04 75.6864Z" fill="#263238"/>
<path d="M298.259 212.66H44.7409V282.289H298.259V212.66Z" fill="#1DB954"/>
<path d="M298.259 282.289H44.7409L47.4849 285.664H295.515L298.259 282.289Z" fill="#1DB954"/>
<path opacity="0.1" d="M298.259 282.289H44.7409L47.4849 285.664H295.515L298.259 282.289Z" fill="black"/>
<path d="M71.1039 253.422C71.3713 253.101 71.755 252.898 72.1714 252.858C72.5878 252.818 73.003 252.944 73.3265 253.209C74.6985 254.3 76.9761 255.583 79.137 255.549C80.4919 255.577 81.8223 255.184 82.9443 254.424C83.3222 254.191 83.6382 253.871 83.8652 253.49C84.0923 253.109 84.2235 252.678 84.2477 252.235C84.2567 251.89 84.161 251.551 83.9733 251.261C83.746 250.889 83.4332 250.576 83.0609 250.349C81.7725 249.62 80.361 249.134 78.8969 248.915H78.8351C77.4825 248.686 76.1641 248.287 74.9112 247.728C73.7592 247.224 72.7759 246.401 72.078 245.355C71.6193 244.603 71.3816 243.738 71.392 242.858C71.4223 241.979 71.6584 241.12 72.0814 240.349C72.5044 239.578 73.1024 238.917 73.8273 238.419C75.3693 237.345 77.2096 236.781 79.0889 236.807C82.0113 236.807 84.1722 238.234 85.7226 239.243C86.0641 239.474 86.3004 239.831 86.38 240.235C86.4597 240.64 86.3762 241.06 86.1479 241.403C86.038 241.578 85.8942 241.728 85.7251 241.845C85.5559 241.963 85.3649 242.045 85.1633 242.088C84.9618 242.13 84.7537 242.131 84.5517 242.091C84.3496 242.052 84.1575 241.972 83.987 241.856C82.4366 240.82 80.948 239.908 79.0889 239.908C77.8647 239.881 76.6636 240.244 75.6589 240.944C75.326 241.146 75.0468 241.426 74.8449 241.759C74.6431 242.092 74.5246 242.469 74.4996 242.858C74.4829 243.158 74.557 243.457 74.7123 243.715C74.9326 244.029 75.2122 244.297 75.5355 244.504C76.7031 245.193 77.9941 245.648 79.3359 245.842H79.3976C80.8435 246.096 82.2532 246.525 83.596 247.118C84.8296 247.658 85.8855 248.535 86.6418 249.649C87.1181 250.428 87.3698 251.323 87.369 252.235C87.3406 253.172 87.0886 254.089 86.6339 254.909C86.1793 255.729 85.5351 256.428 84.7553 256.948C83.1094 258.109 81.1371 258.717 79.1232 258.684C75.8373 258.684 73.0727 257.01 71.3371 255.638C71.0205 255.37 70.8196 254.99 70.7761 254.577C70.7327 254.164 70.8501 253.751 71.1039 253.422Z" fill="white"/>
<path d="M97.755 258.711C96.0803 258.702 94.4768 258.033 93.2926 256.849C92.1084 255.664 91.4391 254.061 91.4301 252.386V245.115C91.4371 244.689 91.6093 244.283 91.9101 243.983C92.2109 243.682 92.6168 243.51 93.0422 243.503C93.4686 243.506 93.8766 243.677 94.1781 243.979C94.4797 244.28 94.6507 244.688 94.6543 245.115V252.386C94.6506 252.794 94.7283 253.199 94.8829 253.577C95.0374 253.955 95.2656 254.298 95.5543 254.587C95.843 254.876 96.1862 255.104 96.5641 255.258C96.9419 255.413 97.3468 255.491 97.755 255.487C98.1685 255.493 98.5792 255.418 98.9637 255.266C99.3481 255.113 99.6988 254.887 99.9957 254.599C100.293 254.311 100.53 253.967 100.694 253.588C100.858 253.208 100.946 252.8 100.952 252.386V245.115C100.95 244.905 100.99 244.697 101.068 244.502C101.147 244.307 101.263 244.13 101.41 243.98C101.557 243.831 101.733 243.711 101.926 243.629C102.119 243.547 102.327 243.504 102.536 243.503C102.963 243.514 103.369 243.687 103.673 243.986C103.977 244.285 104.157 244.688 104.176 245.115V252.386C104.151 254.073 103.463 255.681 102.262 256.865C101.06 258.048 99.4414 258.711 97.755 258.711Z" fill="white"/>
<path d="M110.384 251.138V239.057C110.411 238.636 110.598 238.242 110.905 237.953C111.213 237.664 111.619 237.504 112.041 237.504C112.463 237.504 112.869 237.664 113.177 237.953C113.484 238.242 113.671 238.636 113.698 239.057V244.779C114.898 243.951 116.321 243.506 117.779 243.503C118.975 243.479 120.16 243.738 121.238 244.258C122.315 244.778 123.254 245.545 123.98 246.496C124.705 247.448 125.196 248.557 125.412 249.733C125.628 250.91 125.564 252.121 125.224 253.268C124.885 254.415 124.28 255.466 123.458 256.335C122.636 257.205 121.621 257.868 120.494 258.271C119.368 258.675 118.162 258.807 116.976 258.657C115.789 258.506 114.654 258.079 113.663 257.408C113.574 257.8 113.344 258.146 113.017 258.381C112.69 258.615 112.289 258.722 111.889 258.681C111.488 258.639 111.117 258.453 110.845 258.156C110.573 257.86 110.419 257.474 110.412 257.072L110.384 251.138ZM113.698 251.138C113.692 252.263 114.131 253.345 114.919 254.149C115.283 254.544 115.725 254.859 116.218 255.074C116.71 255.289 117.242 255.399 117.779 255.398C118.316 255.394 118.846 255.282 119.338 255.067C119.83 254.853 120.273 254.54 120.64 254.149C121.423 253.343 121.858 252.262 121.854 251.138C121.87 249.993 121.433 248.889 120.64 248.064C120.273 247.673 119.83 247.361 119.338 247.146C118.846 246.932 118.316 246.819 117.779 246.816C117.242 246.814 116.71 246.925 116.218 247.14C115.725 247.354 115.283 247.669 114.919 248.064C114.121 248.887 113.682 249.992 113.698 251.138Z" fill="white"/>
<path d="M129.729 254.362C129.86 254.192 130.025 254.05 130.212 253.945C130.4 253.84 130.606 253.774 130.82 253.752C131.034 253.729 131.25 253.751 131.455 253.814C131.66 253.878 131.85 253.983 132.014 254.122C132.953 254.923 134.129 255.393 135.362 255.46C136.086 255.452 136.796 255.253 137.42 254.883C137.572 254.78 137.7 254.643 137.794 254.485C137.887 254.326 137.945 254.148 137.961 253.964C137.97 253.856 137.938 253.748 137.872 253.662C137.872 253.573 137.721 253.45 137.474 253.299C136.724 252.869 135.901 252.581 135.046 252.448C134.135 252.289 133.246 252.022 132.398 251.652C131.548 251.27 130.822 250.66 130.299 249.889C129.955 249.311 129.777 248.648 129.784 247.975C129.805 247.317 129.978 246.673 130.288 246.092C130.599 245.512 131.039 245.01 131.575 244.628C132.679 243.879 133.986 243.487 135.32 243.503C136.98 243.561 138.579 244.147 139.882 245.176C140.236 245.418 140.483 245.786 140.574 246.204C140.665 246.623 140.591 247.06 140.369 247.427C140.25 247.603 140.097 247.754 139.919 247.871C139.741 247.988 139.542 248.069 139.333 248.108C139.124 248.148 138.909 248.145 138.7 248.101C138.492 248.057 138.295 247.973 138.119 247.852C137.317 247.21 136.344 246.818 135.32 246.727C134.669 246.711 134.03 246.904 133.496 247.276C133.098 247.55 133.009 247.818 133.009 247.962C133.002 248.004 133.005 248.047 133.015 248.088C133.026 248.129 133.045 248.168 133.07 248.202C133.151 248.334 133.267 248.442 133.406 248.51C134.094 248.887 134.845 249.134 135.622 249.238H135.656C136.636 249.404 137.589 249.702 138.49 250.123C139.375 250.49 140.128 251.116 140.651 251.92C141.02 252.523 141.219 253.216 141.227 253.923C141.211 254.622 141.03 255.306 140.697 255.921C140.364 256.535 139.89 257.061 139.313 257.456C138.148 258.254 136.767 258.678 135.355 258.67C133.363 258.601 131.453 257.862 129.935 256.571C129.628 256.297 129.435 255.917 129.397 255.507C129.359 255.097 129.478 254.688 129.729 254.362Z" fill="white"/>
<path d="M144.362 251.138C144.396 249.109 145.225 247.176 146.671 245.753C148.117 244.33 150.064 243.532 152.093 243.53C153.833 243.549 155.52 244.137 156.895 245.204C157.226 245.467 157.444 245.845 157.507 246.263C157.569 246.68 157.471 247.106 157.231 247.454C157.102 247.624 156.94 247.767 156.756 247.874C156.571 247.981 156.367 248.051 156.155 248.079C155.944 248.107 155.728 248.093 155.522 248.037C155.316 247.982 155.123 247.886 154.954 247.756C154.117 247.13 153.103 246.789 152.059 246.782C151.471 246.758 150.884 246.854 150.334 247.063C149.784 247.272 149.282 247.59 148.858 247.998C148.433 248.405 148.096 248.895 147.865 249.436C147.635 249.977 147.516 250.56 147.516 251.148C147.516 251.736 147.635 252.319 147.865 252.86C148.096 253.402 148.433 253.891 148.858 254.299C149.282 254.706 149.784 255.024 150.334 255.233C150.884 255.442 151.471 255.538 152.059 255.514C153.103 255.506 154.117 255.164 154.954 254.54C155.303 254.291 155.736 254.187 156.16 254.249C156.585 254.312 156.969 254.537 157.231 254.876C157.467 255.225 157.564 255.65 157.502 256.067C157.439 256.484 157.223 256.862 156.895 257.127C155.5 258.149 153.822 258.712 152.093 258.739C150.063 258.744 148.113 257.949 146.666 256.526C145.219 255.103 144.391 253.167 144.362 251.138Z" fill="white"/>
<path d="M172.186 245.115C172.182 245.541 172.011 245.949 171.71 246.251C171.408 246.552 171 246.723 170.574 246.727C169.918 246.706 169.274 246.909 168.749 247.303C168.19 247.683 167.721 248.182 167.377 248.764C166.834 249.549 166.413 250.412 166.129 251.323V257.099C166.118 257.534 165.936 257.947 165.623 258.249C165.309 258.551 164.89 258.717 164.455 258.711C164.028 258.708 163.62 258.537 163.319 258.235C163.017 257.934 162.846 257.526 162.843 257.099V245.115C162.844 244.905 162.888 244.697 162.97 244.504C163.052 244.311 163.171 244.136 163.321 243.988C163.47 243.841 163.647 243.725 163.842 243.646C164.037 243.568 164.245 243.528 164.455 243.53C164.887 243.519 165.305 243.679 165.619 243.977C165.933 244.274 166.116 244.683 166.129 245.115V245.327C166.319 245.102 166.533 244.897 166.767 244.717C167.893 243.938 169.232 243.523 170.601 243.53C170.81 243.529 171.016 243.569 171.209 243.649C171.402 243.728 171.577 243.845 171.724 243.992C171.871 244.139 171.988 244.315 172.067 244.507C172.147 244.7 172.187 244.906 172.186 245.115Z" fill="white"/>
<path d="M179.471 239.695C179.476 239.913 179.437 240.13 179.357 240.333C179.276 240.536 179.156 240.721 179.003 240.877C178.851 241.033 178.668 241.157 178.467 241.241C178.266 241.326 178.05 241.369 177.832 241.369C177.392 241.364 176.972 241.185 176.664 240.871C176.356 240.558 176.184 240.135 176.185 239.695V239.057C176.184 238.841 176.226 238.626 176.309 238.426C176.391 238.226 176.513 238.044 176.666 237.891C176.819 237.738 177.001 237.617 177.201 237.534C177.401 237.452 177.615 237.41 177.832 237.411C178.049 237.407 178.264 237.447 178.465 237.529C178.666 237.61 178.849 237.731 179.002 237.885C179.155 238.039 179.275 238.222 179.356 238.423C179.437 238.625 179.476 238.84 179.471 239.057V239.695ZM179.471 245.183V257.051C179.475 257.267 179.435 257.482 179.354 257.683C179.273 257.883 179.152 258.066 178.999 258.219C178.846 258.372 178.664 258.492 178.464 258.573C178.263 258.654 178.048 258.694 177.832 258.691C177.616 258.692 177.402 258.65 177.202 258.568C177.003 258.486 176.821 258.365 176.668 258.213C176.515 258.061 176.394 257.879 176.311 257.68C176.228 257.481 176.185 257.267 176.185 257.051V245.183C176.179 244.964 176.217 244.746 176.297 244.542C176.377 244.337 176.498 244.151 176.651 243.995C176.805 243.839 176.989 243.715 177.192 243.632C177.395 243.548 177.612 243.507 177.832 243.509C178.053 243.504 178.273 243.545 178.478 243.629C178.683 243.713 178.868 243.839 179.022 243.998C179.176 244.157 179.296 244.346 179.373 244.554C179.45 244.761 179.484 244.983 179.471 245.204V245.183Z" fill="white"/>
<path d="M184.706 251.138V239.057C184.706 238.617 184.88 238.195 185.192 237.883C185.503 237.572 185.925 237.397 186.366 237.397C186.806 237.397 187.228 237.572 187.54 237.883C187.851 238.195 188.026 238.617 188.026 239.057V244.779C189.222 243.966 190.634 243.531 192.08 243.53C194.057 243.589 195.934 244.417 197.311 245.836C198.689 247.256 199.459 249.156 199.459 251.134C199.459 253.113 198.689 255.013 197.311 256.432C195.934 257.852 194.057 258.679 192.08 258.739C190.609 258.722 189.176 258.268 187.964 257.435C187.881 257.834 187.653 258.189 187.324 258.43C186.995 258.67 186.589 258.781 186.183 258.739C185.777 258.697 185.402 258.506 185.129 258.203C184.856 257.9 184.705 257.507 184.706 257.099V251.138ZM188.026 251.138C188.018 252.262 188.454 253.345 189.24 254.149C189.603 254.541 190.042 254.853 190.531 255.068C191.019 255.283 191.546 255.395 192.08 255.398C192.617 255.395 193.147 255.283 193.639 255.069C194.131 254.854 194.574 254.541 194.941 254.149C195.726 253.345 196.163 252.262 196.155 251.138C196.173 249.993 195.736 248.888 194.941 248.065C194.574 247.673 194.131 247.36 193.639 247.145C193.147 246.931 192.617 246.819 192.08 246.816C191.543 246.816 191.012 246.927 190.519 247.142C190.027 247.357 189.585 247.671 189.219 248.065C188.431 248.891 188.002 249.996 188.026 251.138Z" fill="white"/>
<path d="M203.742 251.11C203.733 249.128 204.504 247.221 205.889 245.803C207.274 244.384 209.162 243.568 211.144 243.53C213.047 243.513 214.881 244.243 216.252 245.562C217.623 246.882 218.422 248.687 218.477 250.589V250.74C218.491 250.831 218.491 250.923 218.477 251.014C218.416 251.38 218.219 251.709 217.925 251.934C217.63 252.16 217.262 252.265 216.893 252.228H207.172C207.315 252.985 207.675 253.683 208.208 254.238C208.99 255.022 210.021 255.508 211.123 255.61C212.235 255.717 213.351 255.449 214.293 254.849C214.595 254.557 214.993 254.386 215.413 254.368C215.833 254.35 216.245 254.487 216.57 254.753C216.704 254.881 216.811 255.035 216.883 255.205C216.956 255.376 216.994 255.559 216.994 255.744C216.994 255.929 216.956 256.113 216.883 256.283C216.811 256.454 216.704 256.607 216.57 256.736C215.086 258.088 213.131 258.807 211.123 258.739C209.136 258.695 207.247 257.87 205.865 256.442C204.483 255.013 203.72 253.098 203.742 251.11ZM207.055 249.615H215.672C215.37 248.401 213.813 246.603 211.165 246.391C210.215 246.391 209.294 246.709 208.545 247.293C207.797 247.877 207.266 248.694 207.035 249.615H207.055Z" fill="white"/>
<path d="M223.314 251.378V239.085C223.317 238.642 223.495 238.218 223.808 237.905C224.121 237.592 224.545 237.414 224.987 237.411C225.427 237.416 225.847 237.595 226.155 237.909C226.464 238.222 226.636 238.645 226.634 239.085V251.378C226.637 251.596 226.598 251.813 226.516 252.016C226.435 252.219 226.315 252.404 226.161 252.56C226.008 252.716 225.825 252.839 225.624 252.924C225.422 253.008 225.206 253.052 224.987 253.052C224.767 253.053 224.549 253.01 224.346 252.926C224.142 252.842 223.957 252.719 223.802 252.563C223.646 252.408 223.523 252.223 223.439 252.019C223.355 251.816 223.313 251.598 223.314 251.378ZM225.008 258.711C224.788 258.712 224.571 258.67 224.368 258.586C224.165 258.503 223.98 258.38 223.825 258.225C223.669 258.07 223.546 257.886 223.462 257.684C223.377 257.481 223.334 257.264 223.334 257.044V256.434C223.338 255.991 223.515 255.567 223.828 255.254C224.141 254.941 224.565 254.763 225.008 254.76C225.448 254.765 225.867 254.944 226.176 255.258C226.484 255.571 226.656 255.994 226.654 256.434V257.044C226.658 257.262 226.618 257.479 226.537 257.682C226.456 257.884 226.335 258.069 226.182 258.224C226.028 258.379 225.845 258.502 225.644 258.586C225.442 258.67 225.226 258.712 225.008 258.711Z" fill="white"/>
<path d="M263.774 260.461C263.774 261.085 263.589 261.695 263.242 262.214C262.895 262.733 262.402 263.137 261.826 263.376C261.249 263.615 260.615 263.677 260.003 263.556C259.39 263.434 258.828 263.133 258.387 262.692C257.946 262.251 257.645 261.688 257.523 261.076C257.402 260.464 257.464 259.83 257.703 259.253C257.942 258.676 258.346 258.183 258.865 257.837C259.384 257.49 259.994 257.305 260.618 257.305C261.033 257.305 261.443 257.387 261.826 257.545C262.209 257.704 262.557 257.936 262.85 258.229C263.143 258.522 263.375 258.87 263.534 259.253C263.692 259.636 263.774 260.046 263.774 260.461Z" fill="white"/>
<path d="M274.4 259.411H246.85L247.207 257.47C247.446 256.269 248.072 255.179 248.991 254.369L250.445 253.065L254.088 239.03C254.636 236.286 257.284 234.317 260.378 234.317H260.858C263.952 234.317 266.614 236.3 267.149 239.03L270.798 253.065L272.246 254.369C273.173 255.171 273.802 256.264 274.03 257.47L274.4 259.411Z" fill="white"/>
<path d="M260.378 237.308C259.787 237.308 259.208 237.133 258.716 236.804C258.225 236.475 257.841 236.008 257.615 235.462C257.389 234.915 257.329 234.314 257.445 233.734C257.56 233.153 257.845 232.62 258.263 232.202C258.682 231.784 259.214 231.499 259.795 231.384C260.375 231.268 260.976 231.327 261.523 231.554C262.069 231.78 262.536 232.164 262.865 232.655C263.194 233.147 263.369 233.726 263.369 234.317C263.369 234.71 263.292 235.099 263.141 235.462C262.991 235.825 262.771 236.154 262.493 236.432C262.215 236.71 261.886 236.93 261.523 237.08C261.16 237.231 260.771 237.308 260.378 237.308ZM260.378 233.13C260.143 233.13 259.914 233.2 259.719 233.33C259.524 233.461 259.372 233.646 259.282 233.863C259.192 234.08 259.168 234.318 259.214 234.549C259.26 234.779 259.373 234.99 259.539 235.156C259.705 235.322 259.916 235.435 260.147 235.481C260.377 235.527 260.615 235.503 260.832 235.414C261.049 235.324 261.235 235.172 261.365 234.976C261.495 234.781 261.565 234.552 261.565 234.317C261.565 234.002 261.44 233.7 261.217 233.478C260.995 233.255 260.693 233.13 260.378 233.13Z" fill="white"/>
<path d="M218.223 108.265C218.226 108.427 218.171 108.585 218.068 108.711C217.965 108.836 217.821 108.921 217.661 108.951C216.886 108.992 215.953 109.019 214.917 109.053C212.633 102.578 210.115 97.3914 210.76 99.4151C211.727 102.567 212.217 105.846 212.214 109.143L206.774 109.266C204.956 97.9128 202.445 89.4681 202.542 92.0543C202.939 102.495 202.233 105.829 201.41 109.383C188.293 109.63 171.095 109.767 158.665 109.602C157.403 103.318 156.333 96.5339 156.106 97.0004C154.309 100.478 153.712 105.582 153.561 109.52C149.603 109.438 146.44 109.3 144.52 109.122C144.52 109.122 143.738 103.847 143.655 102.118C143.434 97.676 144.037 93.2314 145.432 89.0085C146.873 84.673 149.253 80.8725 151.517 76.9692C151.534 76.9373 151.555 76.9074 151.579 76.88C153.07 74.3444 154.256 71.641 155.111 68.8264C155.116 68.8061 155.116 68.7849 155.111 68.7646C155.696 66.7305 156.098 64.6482 156.312 62.5426C157.101 54.8457 161.628 48.3013 168.928 46.4628C182.97 33.9501 196.525 39.7468 200.387 49.7419C200.758 50.716 201.115 51.7999 201.458 53.0415V53.0827C202.74 57.576 203.831 63.3727 204.888 67.8866C204.888 67.8866 204.888 67.8866 204.888 67.9346C205.274 69.699 205.769 71.4379 206.369 73.1413C209.607 81.291 217.38 86.0724 218.223 108.265Z" fill="#263238"/>
<path d="M165.71 48.4728C160.908 50.8189 157.876 54.3655 156.984 59.9701C156.463 63.2355 156.154 66.4323 154.81 69.4918C153.465 72.5514 151.29 75.2131 149.102 77.7718C145.631 81.8398 143.168 85.9215 142.496 91.4232C141.824 96.925 141.899 103.641 143.642 108.923H143.69C142.318 103.579 142.468 96.2321 143.566 90.7029C144.773 84.625 148.334 80.8794 151.997 76.3381C154.928 72.7997 156.844 68.5319 157.54 63.9901C157.972 61.2461 158.013 58.3306 159.2 55.7581C160.627 52.6711 163.316 50.7503 166.06 49.0559C166.098 49.0329 166.132 49.0026 166.158 48.9667C166.185 48.9309 166.204 48.8901 166.215 48.8468C166.226 48.8035 166.228 48.7584 166.221 48.7143C166.215 48.6701 166.2 48.6277 166.177 48.5894C166.154 48.5511 166.123 48.5177 166.088 48.4911C166.052 48.4646 166.011 48.4453 165.968 48.4345C165.924 48.4236 165.879 48.4214 165.835 48.428C165.791 48.4346 165.748 48.4498 165.71 48.4728Z" fill="#263238"/>
<path d="M214.107 81.9907C210.876 77.5317 207.481 73.7107 205.67 68.2707C204.016 63.2835 203.138 58.0356 201.451 53.0484C201.451 53.032 201.444 53.0163 201.433 53.0047C201.421 52.9931 201.405 52.9866 201.389 52.9866C201.373 52.9866 201.357 52.9931 201.345 53.0047C201.334 53.0163 201.327 53.032 201.327 53.0484C203.893 61.8909 204.195 70.7472 209.648 78.2657C212.612 82.3817 215.582 86.1479 217.476 91.0048C219.395 96.0915 220.327 101.498 220.22 106.934C220.22 106.97 220.234 107.005 220.26 107.031C220.286 107.056 220.321 107.071 220.357 107.071C220.393 107.071 220.428 107.056 220.454 107.031C220.48 107.005 220.494 106.97 220.494 106.934C221.568 98.1127 219.288 89.2103 214.107 81.9907Z" fill="#263238"/>
<path d="M170.581 45.0291C170.361 46.8813 161.285 50.7777 155.262 45.6465C149.239 40.5152 152.47 31.2885 161.039 32.7565C166.458 33.6826 171.054 41.1189 170.581 45.0291Z" fill="#263238"/>
<path d="M152.601 37.0783C153.693 34.8639 155.504 33.0861 157.739 32.0362C158.772 31.5226 159.922 31.2902 161.073 31.3625C162.224 31.4347 163.336 31.8091 164.297 32.4478C166.275 33.832 167.838 35.7294 168.818 37.9358C169.351 39.0384 169.785 40.1863 170.114 41.3658C170.496 42.5521 170.654 43.7988 170.581 45.0428C170.925 43.8012 170.993 42.4993 170.78 41.2286C170.605 39.9466 170.28 38.6894 169.812 37.4831C168.903 34.9796 167.237 32.8216 165.045 31.3091C163.881 30.5537 162.534 30.1292 161.148 30.0811C159.78 30.0689 158.434 30.4192 157.245 31.0964C156.106 31.7267 155.107 32.5819 154.308 33.6103C153.51 34.6386 152.929 35.8185 152.601 37.0783Z" fill="#263238"/>
<path d="M196.326 108.463C227.313 130.052 269.337 174.683 265.317 187.093C260.838 200.909 217.359 175.15 218.141 173.092C218.827 171.342 199.242 140.232 184.994 117.471C170.745 94.7092 188.65 103.126 196.326 108.463Z" fill="#F7A9A0"/>
<path d="M234.146 134.209L198.81 148.265C198.81 148.265 184.404 124.132 179.602 110.069C176.94 102.187 181.625 100.89 188.479 103.977C212.489 114.768 234.146 134.209 234.146 134.209Z" fill="#455A64"/>
<path d="M200.868 110.336C197.059 109.787 193.195 109.753 189.377 110.233C186.29 110.563 183.203 111.05 180.15 111.537C180.068 111.324 179.993 111.111 179.917 110.899C183.032 110.412 186.16 109.932 189.315 109.595C192.668 109.191 196.055 109.163 199.413 109.513L200.868 110.336ZM209.724 115.776C207.22 116.462 204.709 117.148 202.178 117.704C198.247 118.534 194.227 119.275 190.242 118.904C188.248 118.691 186.29 118.23 184.411 117.532C183.656 117.251 182.908 116.929 182.181 116.579L182.428 117.141C183.025 117.43 183.635 117.697 184.26 117.937C186.164 118.681 188.156 119.179 190.187 119.419C192.223 119.595 194.272 119.552 196.299 119.289C198.316 119.045 200.317 118.69 202.295 118.225C204.97 117.608 207.618 116.853 210.245 116.106L209.724 115.776ZM226.099 127.541C223.101 130.086 220.083 132.604 216.92 134.929C213.758 137.255 210.286 139.58 206.493 140.863C204.584 141.471 202.607 141.842 200.607 141.968C198.745 142.067 196.878 141.991 195.03 141.741L195.263 142.139C197.042 142.387 198.84 142.475 200.634 142.4C202.677 142.312 204.699 141.959 206.651 141.35C208.585 140.694 210.442 139.826 212.187 138.764C213.936 137.717 215.624 136.572 217.242 135.334C220.419 132.947 223.451 130.374 226.449 127.788L226.099 127.541ZM225.008 126.691C223.046 126.691 221.077 126.828 219.115 127.006C217.092 127.212 215.085 127.549 213.106 128.014C209.151 129.017 205.366 130.6 201.876 132.714C198.865 134.449 195.949 136.329 193.047 138.202C193.164 138.401 193.267 138.586 193.37 138.778C196.292 136.891 199.194 134.984 202.199 133.29C205.637 131.207 209.356 129.629 213.243 128.604C215.194 128.123 217.174 127.768 219.17 127.541C221.173 127.335 223.183 127.191 225.2 127.157H225.571L225.008 126.691Z" fill="#37474F"/>
<path d="M229.412 136.096L198.803 148.258C198.803 148.258 184.397 124.132 179.629 110.076C177.928 105.027 179.238 102.68 182.195 102.454L229.412 136.096Z" fill="#37474F"/>
<path d="M197.829 142.208C203.09 139.594 217.551 132.919 227.519 129.812C227.581 129.812 227.677 130.018 227.622 130.045C219.719 133.88 203.44 140.39 197.973 142.53C197.87 142.571 197.733 142.256 197.829 142.208Z" fill="#263238"/>
<path d="M220.81 212.729H130.642C130.642 212.729 134.298 142.51 164.853 107.702C173.085 98.3175 186.057 100.602 192.663 107.448C203.577 118.767 216.46 143.34 217.441 148.704C219.06 157.567 213.963 167.144 213.963 167.144L220.81 212.729Z" fill="#455A64"/>
<path d="M216.09 181.481C213.751 182.167 211.391 182.853 209.01 183.402C205.071 184.385 201.055 185.027 197.005 185.323C194.977 185.45 192.942 185.45 190.914 185.323C188.883 185.148 186.877 184.752 184.932 184.143C181.064 182.891 177.375 181.143 173.956 178.943C170.526 176.823 167.212 174.464 163.824 172.261C161.958 171.034 160.064 169.84 158.116 168.749L157.341 168.324C156.017 167.604 154.666 166.952 153.28 166.348C151.435 165.554 149.516 164.943 147.552 164.523C145.589 164.125 143.584 163.97 141.584 164.064C140.48 164.14 139.382 164.289 138.298 164.51C138.346 164.318 138.394 164.126 138.449 163.933C139.472 163.737 140.508 163.608 141.549 163.549C143.595 163.47 145.642 163.655 147.641 164.098C149.626 164.551 151.563 165.194 153.424 166.019C154.901 166.669 156.343 167.395 157.746 168.193C158.006 168.331 158.253 168.475 158.507 168.626C160.366 169.703 162.177 170.869 163.954 172.056C167.309 174.319 170.622 176.645 174.079 178.724C177.501 180.899 181.19 182.622 185.055 183.848C186.981 184.428 188.964 184.796 190.969 184.946C192.979 185.043 194.993 185.013 196.999 184.856C201.013 184.506 204.994 183.834 208.901 182.846C211.295 182.27 213.703 181.591 216.021 180.864L216.09 181.481ZM215.713 178.964C214.526 178.278 213.36 177.503 212.207 176.741C208.818 174.539 205.526 172.179 202.075 170.059C198.654 167.864 194.965 166.117 191.099 164.86C189.156 164.251 187.152 163.855 185.124 163.68C183.095 163.553 181.061 163.553 179.032 163.68C174.981 163.976 170.962 164.618 167.02 165.6C163.899 166.348 160.812 167.247 157.753 168.193L157.348 168.324L155.345 168.948C151.483 170.169 147.662 171.473 143.765 172.502C141.251 173.196 138.687 173.691 136.096 173.983C136.048 174.203 136.006 174.416 135.958 174.628C138.652 174.345 141.318 173.843 143.93 173.126C148.732 171.843 153.41 170.238 158.123 168.749L158.514 168.626C161.375 167.727 164.249 166.876 167.164 166.177C171.071 165.183 175.051 164.509 179.067 164.16C181.071 164.007 183.082 163.977 185.09 164.071C187.095 164.22 189.078 164.588 191.003 165.168C194.852 166.384 198.528 168.092 201.938 170.251C205.402 172.309 208.716 174.656 212.07 176.919C213.284 177.736 214.512 178.538 215.761 179.307L215.713 178.964ZM194.337 109.28C192.656 109.28 190.976 109.424 189.315 109.595C184.376 110.124 179.499 110.967 174.614 111.736L174.203 111.797C171.239 112.25 168.269 112.648 165.285 112.895C163.686 113.025 162.081 113.128 160.483 113.176L160.064 113.753C161.827 113.753 163.584 113.622 165.34 113.485C168.543 113.224 171.726 112.799 174.896 112.346L175.321 112.284L177.379 111.969C181.378 111.358 185.357 110.659 189.363 110.233C191.186 110.028 193.018 109.918 194.851 109.904C194.701 109.691 194.522 109.486 194.337 109.28ZM200.998 117.944C197.438 118.671 193.816 119.241 190.221 118.904C188.228 118.691 186.269 118.23 184.39 117.532C182.51 116.817 180.706 115.916 179.005 114.843C177.729 114.048 176.494 113.183 175.3 112.278L174.614 111.729C172.858 110.357 171.184 108.875 169.517 107.38C168.77 106.694 168.036 106.008 167.295 105.356L167.137 105.486L169.353 107.544C170.931 108.999 172.529 110.432 174.203 111.777C174.429 111.969 174.656 112.147 174.889 112.326C176.156 113.329 177.472 114.267 178.833 115.138C180.546 116.239 182.361 117.172 184.253 117.923C186.157 118.667 188.149 119.165 190.18 119.405C192.216 119.582 194.265 119.538 196.292 119.275C198.002 119.069 199.69 118.783 201.355 118.417L200.998 117.944ZM212.79 137.742C210.817 139.028 208.699 140.075 206.479 140.863C204.57 141.471 202.593 141.842 200.593 141.968C198.586 142.073 196.573 141.979 194.584 141.686C193.088 141.481 191.614 141.186 190.152 140.836L189.336 140.63C187.168 140.074 185.035 139.409 182.915 138.709C179.067 137.468 175.28 136.041 171.397 134.888C167.527 133.651 163.512 132.92 159.454 132.714C157.419 132.629 155.381 132.765 153.376 133.118C151.722 133.446 150.09 133.879 148.492 134.415L148.245 134.991C149.946 134.389 151.685 133.901 153.451 133.53C155.426 133.149 157.437 132.991 159.447 133.057C163.48 133.228 167.473 133.919 171.329 135.115C175.211 136.226 179.012 137.605 182.84 138.922C184.863 139.608 186.914 140.294 189.014 140.836L189.857 141.055C191.422 141.46 193.007 141.785 194.604 142.029C196.616 142.347 198.654 142.467 200.689 142.386C202.732 142.298 204.754 141.945 206.706 141.337C208.64 140.68 210.497 139.813 212.242 138.75L213.106 138.222L212.79 137.742ZM208.311 129.51C206.093 130.423 203.941 131.486 201.869 132.693C197.568 135.197 193.452 137.968 189.336 140.63L188.986 140.85C186.462 142.455 183.91 144.026 181.276 145.459C177.758 147.429 174.088 149.11 170.299 150.488C168.403 151.157 166.467 151.709 164.503 152.141C162.527 152.515 160.517 152.673 158.507 152.614C154.477 152.441 150.486 151.749 146.633 150.556C145.334 150.186 144.049 149.79 142.777 149.37C142.777 149.431 142.729 149.5 142.709 149.569C143.985 149.994 145.267 150.406 146.557 150.79C150.417 152.025 154.419 152.76 158.466 152.978C160.501 153.064 162.539 152.926 164.544 152.566C166.536 152.156 168.499 151.62 170.423 150.961C174.259 149.628 177.972 147.966 181.522 145.995C184.349 144.465 187.086 142.798 189.796 141.09C189.919 141.014 190.043 140.939 190.159 140.856C190.756 140.486 191.346 140.109 191.936 139.731C195.366 137.557 198.7 135.3 202.226 133.297C204.295 132.081 206.448 131.013 208.667 130.1C208.544 129.901 208.434 129.716 208.324 129.531L208.311 129.51ZM218.018 194.22C215.103 193.446 212.113 192.986 209.1 192.848C207.065 192.763 205.027 192.899 203.022 193.253C201.031 193.665 199.067 194.202 197.143 194.858C193.307 196.193 189.594 197.855 186.043 199.825C183.217 201.355 180.473 203.022 177.763 204.73C177.647 204.812 177.523 204.888 177.4 204.963L175.616 206.143C172.186 208.318 168.845 210.568 165.326 212.578L165.058 212.729H166.341C170.396 210.355 174.278 207.741 178.223 205.231L178.573 205.004C181.097 203.399 183.649 201.828 186.283 200.394C189.799 198.422 193.47 196.741 197.259 195.366C199.151 194.69 201.085 194.138 203.049 193.713C205.024 193.332 207.035 193.174 209.045 193.239C212.081 193.345 215.096 193.78 218.038 194.536L218.018 194.22ZM220.46 210.451C220.281 210.527 220.103 210.588 219.925 210.65C218.029 211.322 216.093 211.874 214.128 212.303C213.106 212.503 212.073 212.639 211.034 212.708C210.067 212.777 209.107 212.797 208.139 212.777C207.673 212.777 207.206 212.742 206.767 212.708C203.211 212.421 199.697 211.749 196.285 210.705C192.402 209.594 188.602 208.208 184.774 206.891C182.716 206.205 180.699 205.519 178.6 204.984L177.749 204.757C176.187 204.354 174.605 204.029 173.009 203.783C170.997 203.472 168.959 203.353 166.924 203.426C164.881 203.522 162.857 203.874 160.901 204.476C158.967 205.137 157.111 206.006 155.365 207.069C153.62 208.117 151.934 209.263 150.316 210.499C149.342 211.226 148.382 211.972 147.435 212.735H148.251C149.034 212.123 149.827 211.521 150.632 210.931C153.89 208.578 157.265 206.28 161.066 204.997C162.972 204.386 164.947 204.015 166.945 203.893C168.952 203.785 170.965 203.877 172.954 204.167C174.443 204.38 175.918 204.668 177.386 205.018L178.25 205.237C180.411 205.779 182.551 206.445 184.671 207.145C188.513 208.393 192.306 209.82 196.189 210.972C198.684 211.735 201.228 212.324 203.804 212.735C205.235 212.959 206.678 213.096 208.126 213.147C210.16 213.233 212.199 213.095 214.203 212.735C216.195 212.326 218.159 211.79 220.083 211.13L220.528 210.972L220.46 210.451Z" fill="#37474F"/>
<path d="M186.441 160.867C190.563 161.271 194.649 161.979 198.666 162.987C200.655 163.515 202.603 164.132 204.551 164.798C205.526 165.127 206.5 165.422 207.481 165.71C208.503 166.048 209.563 166.257 210.636 166.334C210.652 166.339 210.665 166.349 210.675 166.362C210.684 166.375 210.689 166.39 210.689 166.406C210.689 166.423 210.684 166.438 210.675 166.451C210.665 166.464 210.652 166.474 210.636 166.478C209.623 166.52 208.607 166.492 207.597 166.396C206.623 166.272 205.658 166.082 204.709 165.827C202.686 165.312 200.689 164.702 198.672 164.16C194.598 163.076 190.53 161.992 186.393 161.21C186.356 161.195 186.325 161.168 186.305 161.134C186.285 161.099 186.277 161.059 186.283 161.02C186.288 160.98 186.307 160.944 186.336 160.916C186.364 160.888 186.401 160.871 186.441 160.867Z" fill="#263238"/>
<path d="M176.213 164.434C179.614 164.107 183.031 163.972 186.448 164.029C188.156 164.029 189.878 164.201 191.552 164.379C192.361 164.462 193.171 164.565 193.98 164.674C194.79 164.784 195.743 165.038 196.635 165.148C196.731 165.148 196.724 165.299 196.635 165.292C195.791 165.216 194.927 165.292 194.083 165.251L191.531 165.161C189.83 165.107 188.101 165.065 186.421 164.997C182.991 164.846 179.615 164.736 176.206 164.709C176.021 164.709 176.041 164.448 176.213 164.434Z" fill="#263238"/>
<path d="M265.29 186.812C261.771 196.614 246.521 202.452 209.504 220.769C204.38 223.3 176.775 191.957 182.106 188.972C188.821 185.206 215.72 172.063 217.778 171.349C235.38 165.326 267.67 180.157 265.29 186.812Z" fill="#F7A9A0"/>
<path d="M144.794 230.53C148.492 233.761 155.681 223.972 155.681 223.972C155.407 226.071 155.876 228.199 157.005 229.988C159.145 233.048 164.88 231.038 164.88 231.038C165.05 233.274 165.887 235.408 167.281 237.164C169.627 239.908 175.698 238.68 175.698 238.68C177.013 240.616 178.949 242.046 181.186 242.734C191.298 245.396 209.12 224.96 212.969 218.038L190.44 184.904C190.44 184.904 164.496 192.45 156.957 200.484C152.793 204.956 139.141 225.591 144.794 230.53Z" fill="#F7A9A0"/>
<path d="M155.647 223.801C158.432 217.73 162.671 212.338 166.815 207.172C166.904 207.062 167.082 207.206 166.993 207.323C162.808 212.406 159.886 218.731 155.914 223.972C155.804 224.116 155.571 223.965 155.647 223.801Z" fill="#263238"/>
<path d="M164.64 230.578C165.407 229.259 166.343 228.046 167.425 226.97C168.495 225.763 169.593 224.576 170.704 223.41C172.927 221.064 175.214 218.777 177.564 216.55C177.667 216.454 177.846 216.55 177.743 216.694C175.527 219.033 173.352 221.407 171.239 223.842C170.176 225.056 169.133 226.284 168.091 227.519C167.187 228.744 166.149 229.865 164.997 230.86C164.959 230.907 164.905 230.937 164.845 230.945C164.785 230.952 164.725 230.935 164.678 230.897C164.63 230.86 164.6 230.805 164.593 230.746C164.586 230.686 164.603 230.626 164.64 230.578Z" fill="#263238"/>
<path d="M175.794 238.577C176.329 237.377 177.557 236.389 178.47 235.463C179.513 234.42 180.528 233.364 181.564 232.307C183.622 230.194 185.68 228.074 187.635 225.886C187.731 225.776 187.909 225.92 187.813 226.03C185.817 228.267 183.855 230.523 181.838 232.739C180.85 233.823 179.856 234.905 178.854 235.984C178.003 236.896 177.043 238.138 175.897 238.687C175.882 238.692 175.866 238.693 175.851 238.689C175.835 238.685 175.821 238.677 175.81 238.665C175.799 238.654 175.792 238.639 175.789 238.624C175.786 238.608 175.788 238.592 175.794 238.577Z" fill="#263238"/>
<path d="M236.279 170.725C233.206 169.833 224.734 168.104 217.819 171.274C217.804 171.281 217.793 171.292 217.786 171.307C217.779 171.321 217.778 171.338 217.782 171.353C217.786 171.368 217.795 171.382 217.808 171.391C217.821 171.401 217.837 171.405 217.853 171.404C223.807 169.641 233.199 170.231 236.252 170.848C236.268 170.852 236.285 170.849 236.299 170.84C236.313 170.831 236.323 170.817 236.327 170.8C236.331 170.784 236.328 170.767 236.319 170.753C236.31 170.738 236.295 170.728 236.279 170.725Z" fill="#263238"/>
<path d="M170.128 115.035C168.852 129.599 149.246 195.489 118.527 205.532C108.1 208.962 92.6649 167.94 96.4447 119.899C96.5545 118.479 128.886 111.187 131.561 118.616C131.849 119.412 134.305 140.795 133.393 140.568C132.233 140.294 142.057 129.489 158.171 111.701C165.806 103.298 170.91 106.33 170.128 115.035Z" fill="#F7A9A0"/>
<path d="M132.858 138.888C134.127 149.829 135.176 160.84 135.924 171.816C136.13 174.882 136.37 177.942 136.61 181.008C136.61 181.118 136.795 181.097 136.795 181.008C136.997 175.496 136.91 169.978 136.535 164.475C136.171 159.029 135.691 153.499 134.792 148.135C134.278 145.034 133.715 141.961 133.084 138.874C133.036 138.709 132.844 138.757 132.858 138.888Z" fill="#263238"/>
<path d="M96.3899 129.393C93.7831 125.963 83.2118 109.177 81.2979 103.847C79.3839 98.5165 75.0553 82.7865 78.9929 80.9206C82.9305 79.0547 84.5632 83.5548 84.5632 83.5548C84.5632 83.5548 83.7812 76.6262 87.9109 75.1033C92.0406 73.5804 94.3662 80.6805 94.3662 80.6805C94.3662 80.6805 94.078 73.4981 98.3038 72.2839C102.53 71.0696 103.675 78.5813 103.675 78.5813C103.675 78.5813 103.106 72.03 107.016 72.4897C111.715 73.0453 111.393 85.2424 113.931 90.9705C114.5 92.267 127.473 116.49 127.473 116.49L96.3899 129.393Z" fill="#F7A9A0"/>
<path d="M103.586 77.9365C103.373 86.9094 104.828 90.8676 109.362 98.4479C109.451 98.5919 109.252 98.7634 109.143 98.6125C104.032 91.5947 101.487 86.8956 103.154 77.909C103.229 77.4631 103.586 77.518 103.586 77.9365Z" fill="#263238"/>
<path d="M94.4142 79.967C95.0042 89.3035 96.5477 93.6116 100.712 101.919C100.773 102.036 100.581 102.145 100.513 102.036C95.7107 94.2496 93.3097 89.4956 93.9477 80.0836C93.982 79.6446 94.3868 79.576 94.4142 79.967Z" fill="#263238"/>
<path d="M84.8102 83.9733C86.0313 92.9667 87.5542 97.7687 92.5963 105.294C92.6181 105.329 92.6262 105.371 92.6189 105.411C92.6116 105.451 92.5894 105.488 92.5568 105.513C92.5241 105.538 92.4833 105.549 92.4424 105.546C92.4015 105.542 92.3634 105.523 92.3356 105.493C86.4086 98.3244 84.5083 92.3493 84.5426 84.0419C84.5426 83.4725 84.7347 83.4039 84.8102 83.9733Z" fill="#263238"/>
<path d="M115.934 55.1613H91.19C90.5198 55.1685 89.8799 55.4412 89.4105 55.9196C88.9411 56.398 88.6806 57.043 88.6861 57.7132V108.628C88.6806 109.298 88.9411 109.943 89.4105 110.422C89.8799 110.9 90.5198 111.173 91.19 111.18H115.934C116.604 111.173 117.244 110.9 117.713 110.422C118.183 109.943 118.443 109.298 118.438 108.628V57.7132C118.443 57.043 118.183 56.398 117.713 55.9196C117.244 55.4412 116.604 55.1685 115.934 55.1613ZM116.874 107.057C116.886 107.363 116.837 107.669 116.731 107.957C116.625 108.244 116.463 108.508 116.254 108.733C116.046 108.958 115.795 109.14 115.517 109.268C115.238 109.395 114.937 109.467 114.631 109.479H92.4934C91.8753 109.454 91.2922 109.185 90.8718 108.731C90.4514 108.277 90.2279 107.675 90.2502 107.057V59.6408C90.2502 56.8968 91.2586 56.7802 92.4934 56.7802H96.9318C97.1856 56.7802 97.3983 57.0752 97.3983 57.4662V57.624C97.3983 58.4746 97.8648 58.4815 98.4342 58.4815H108.683C109.259 58.4815 109.726 58.4815 109.726 57.624V57.4662C109.726 57.1095 109.932 56.7802 110.192 56.7802H114.624C115.865 56.7802 116.867 57.1438 116.867 59.6408L116.874 107.057Z" fill="#37474F"/>
<path d="M116.867 59.682V107.098C116.879 107.405 116.83 107.71 116.724 107.998C116.618 108.285 116.456 108.549 116.247 108.774C116.039 108.999 115.788 109.181 115.51 109.309C115.231 109.437 114.93 109.508 114.624 109.52H92.5002C91.8809 109.497 91.2961 109.229 90.8742 108.775C90.4524 108.321 90.2279 107.718 90.2502 107.098V59.682C90.2502 56.938 91.2586 56.8214 92.5002 56.8214H96.9318C97.1856 56.8214 97.3983 57.1164 97.3983 57.5074V57.624C97.3983 58.4746 97.8648 58.4815 98.4342 58.4815H108.683C109.259 58.4815 109.726 58.4815 109.726 57.624V57.4662C109.726 57.1095 109.932 56.7802 110.192 56.7802H114.624C115.865 56.8214 116.867 57.185 116.867 59.682Z" fill="#1DB954"/>
<path opacity="0.2" d="M116.867 65.7325V107.098C116.879 107.405 116.83 107.71 116.724 107.998C116.618 108.286 116.456 108.549 116.247 108.774C116.039 108.999 115.788 109.181 115.51 109.309C115.231 109.437 114.93 109.508 114.624 109.52H92.5002C92.1939 109.508 91.8928 109.437 91.6142 109.309C91.3356 109.181 91.0849 108.999 90.8766 108.774C90.6683 108.549 90.5063 108.286 90.4 107.998C90.2937 107.71 90.2451 107.405 90.257 107.098V76.0637C96.0812 75.316 101.919 83.8224 107.352 81.3185C112.312 79.0204 112.086 71.7556 113.931 68.4422C114.591 67.2452 115.621 66.2944 116.867 65.7325Z" fill="white"/>
<path opacity="0.2" d="M116.867 92.9668V107.098C116.879 107.405 116.83 107.71 116.724 107.998C116.618 108.286 116.456 108.549 116.247 108.774C116.039 108.999 115.788 109.181 115.51 109.309C115.231 109.437 114.93 109.508 114.624 109.52H92.5002C92.1939 109.508 91.8928 109.437 91.6142 109.309C91.3356 109.181 91.0849 108.999 90.8766 108.774C90.6683 108.549 90.5063 108.286 90.4 107.998C90.2937 107.71 90.2451 107.405 90.257 107.098V88.6244C93.4126 94.1467 96.9524 95.7382 100.17 94.9219C103.847 93.9889 109.088 89.2281 114.054 90.8882C115.185 91.2721 116.168 91.9986 116.867 92.9668Z" fill="white"/>
<path d="M104.958 57.3839H102.159C102.114 57.3839 102.07 57.3658 102.038 57.3337C102.006 57.3015 101.988 57.2579 101.988 57.2124C101.988 57.1663 102.005 57.1219 102.037 57.0887C102.069 57.0554 102.113 57.0358 102.159 57.0341H104.958C105.004 57.0358 105.048 57.0554 105.08 57.0887C105.112 57.1219 105.13 57.1663 105.13 57.2124C105.13 57.2579 105.111 57.3015 105.079 57.3337C105.047 57.3658 105.003 57.3839 104.958 57.3839Z" fill="#263238"/>
<path d="M96.1635 57.8436L96.1223 57.8847C96.069 57.8296 96.005 57.7859 95.9342 57.7564C95.8635 57.727 95.7874 57.7122 95.7107 57.7132C95.5564 57.7143 95.4086 57.7759 95.2991 57.8847L95.2511 57.8436C95.266 57.8241 95.2847 57.8078 95.306 57.7955C95.3415 57.7605 95.3834 57.7325 95.4295 57.7132C95.4808 57.6857 95.5365 57.6672 95.5941 57.6583H95.6764H95.8068C95.8565 57.648 95.9079 57.648 95.9577 57.6583L96.0606 57.7064C96.0953 57.7252 96.1275 57.7483 96.1566 57.775L96.2047 57.8161L96.1635 57.8436Z" fill="#263238"/>
<path d="M95.4089 58.0425L95.3403 57.9807C95.4133 57.9049 95.5102 57.8565 95.6147 57.8435C95.6893 57.8295 95.7663 57.8347 95.8383 57.8587C95.9103 57.8827 95.975 57.9247 96.0263 57.9807L95.9577 58.0425C95.8837 57.972 95.7855 57.9327 95.6833 57.9327C95.5811 57.9327 95.4829 57.972 95.4089 58.0425Z" fill="#263238"/>
<path d="M95.8959 58.1111L95.8273 58.1797C95.7874 58.1449 95.7362 58.1258 95.6833 58.1258C95.6303 58.1258 95.5792 58.1449 95.5392 58.1797L95.4775 58.1111C95.5337 58.057 95.6087 58.0268 95.6867 58.0268C95.7647 58.0268 95.8397 58.057 95.8959 58.1111Z" fill="#263238"/>
<path d="M95.745 58.2414C95.745 58.2536 95.7414 58.2656 95.7346 58.2757C95.7278 58.2859 95.7182 58.2938 95.7069 58.2985C95.6956 58.3031 95.6832 58.3044 95.6713 58.302C95.6593 58.2996 95.6483 58.2937 95.6396 58.2851C95.631 58.2765 95.6251 58.2654 95.6227 58.2535C95.6204 58.2415 95.6216 58.2291 95.6263 58.2178C95.6309 58.2065 95.6388 58.1969 95.649 58.1901C95.6591 58.1833 95.6711 58.1797 95.6833 58.1797C95.6997 58.1797 95.7154 58.1862 95.727 58.1978C95.7385 58.2093 95.745 58.2251 95.745 58.2414Z" fill="#263238"/>
<path d="M91.9857 57.9739C91.9857 57.9386 91.9962 57.9041 92.0158 57.8748C92.0354 57.8455 92.0633 57.8226 92.0959 57.8091C92.1284 57.7956 92.1643 57.7921 92.1989 57.799C92.2335 57.8058 92.2653 57.8228 92.2902 57.8478C92.3152 57.8727 92.3322 57.9045 92.339 57.9391C92.3459 57.9737 92.3424 58.0096 92.3289 58.0421C92.3154 58.0747 92.2925 58.1026 92.2632 58.1222C92.2339 58.1418 92.1994 58.1522 92.1641 58.1522C92.1168 58.1522 92.0714 58.1335 92.038 58.1C92.0045 58.0666 91.9857 58.0212 91.9857 57.9739Z" fill="#263238"/>
<path d="M92.5414 57.9739C92.5414 57.9386 92.5519 57.9041 92.5715 57.8748C92.5911 57.8455 92.6189 57.8226 92.6515 57.8091C92.6841 57.7956 92.72 57.7921 92.7546 57.799C92.7892 57.8058 92.8209 57.8228 92.8459 57.8478C92.8708 57.8727 92.8878 57.9045 92.8947 57.9391C92.9016 57.9737 92.898 58.0096 92.8845 58.0421C92.871 58.0747 92.8482 58.1026 92.8188 58.1222C92.7895 58.1418 92.755 58.1522 92.7198 58.1522C92.6725 58.1522 92.6271 58.1335 92.5936 58.1C92.5602 58.0666 92.5414 58.0212 92.5414 57.9739Z" fill="#263238"/>
<path d="M93.2754 58.1522C93.3739 58.1522 93.4538 58.0724 93.4538 57.9739C93.4538 57.8754 93.3739 57.7955 93.2754 57.7955C93.1769 57.7955 93.0971 57.8754 93.0971 57.9739C93.0971 58.0724 93.1769 58.1522 93.2754 58.1522Z" fill="#263238"/>
<path d="M93.8311 58.1522C93.9296 58.1522 94.0094 58.0724 94.0094 57.9739C94.0094 57.8754 93.9296 57.7955 93.8311 57.7955C93.7326 57.7955 93.6527 57.8754 93.6527 57.9739C93.6527 58.0724 93.7326 58.1522 93.8311 58.1522Z" fill="#263238"/>
<path d="M94.3867 58.1522C94.4853 58.1522 94.5651 58.0724 94.5651 57.9739C94.5651 57.8754 94.4853 57.7955 94.3867 57.7955C94.2882 57.7955 94.2084 57.8754 94.2084 57.9739C94.2084 58.0724 94.2882 58.1522 94.3867 58.1522Z" fill="#263238"/>
<path d="M114.871 58.3581H113.437V57.6721H114.871V58.3581ZM113.499 58.2826H114.788V57.7681H113.499V58.2826Z" fill="#263238"/>
<path d="M114.48 57.8093H113.554V58.2483H114.48V57.8093Z" fill="#263238"/>
<path d="M115.001 57.8504H114.871V58.2071H115.001V57.8504Z" fill="#263238"/>
<path d="M104.444 81.6889C104.445 81.8654 104.393 82.0382 104.296 82.1852C104.198 82.3321 104.059 82.4466 103.895 82.5137C103.732 82.5809 103.553 82.5977 103.38 82.5621C103.207 82.5264 103.049 82.4399 102.925 82.3136C102.802 82.1874 102.719 82.0272 102.688 81.8535C102.656 81.6799 102.677 81.5008 102.748 81.3393C102.819 81.1777 102.937 81.0411 103.086 80.9469C103.236 80.8528 103.41 80.8054 103.586 80.8108C103.815 80.8162 104.033 80.9111 104.194 81.0752C104.354 81.2393 104.444 81.4596 104.444 81.6889Z" fill="white"/>
<path d="M107.407 81.3939H99.7101L99.813 80.852C99.88 80.5165 100.056 80.2126 100.314 79.9876L100.719 79.6241L101.734 75.7001C101.832 75.3119 102.061 74.9693 102.382 74.7296C102.703 74.4899 103.097 74.3675 103.497 74.383H103.627C104.027 74.3679 104.419 74.4905 104.739 74.7303C105.058 74.9701 105.286 75.3125 105.383 75.7001L106.405 79.6241L106.81 79.9876C107.068 80.2113 107.243 80.5161 107.304 80.852L107.407 81.3939Z" fill="white"/>
<path d="M103.497 75.2199C103.331 75.2213 103.169 75.1733 103.03 75.0822C102.891 74.9911 102.783 74.8608 102.719 74.708C102.654 74.5552 102.637 74.3867 102.668 74.2239C102.7 74.0612 102.779 73.9114 102.896 73.7937C103.013 73.6759 103.162 73.5955 103.324 73.5627C103.487 73.5298 103.655 73.546 103.809 73.6091C103.962 73.6723 104.093 73.7795 104.185 73.9173C104.278 74.0551 104.327 74.2172 104.327 74.383C104.327 74.6038 104.24 74.8156 104.084 74.9724C103.929 75.1291 103.718 75.2181 103.497 75.2199ZM103.497 74.0537C103.43 74.0523 103.364 74.0711 103.308 74.1075C103.251 74.1439 103.207 74.1963 103.181 74.258C103.155 74.3197 103.147 74.3878 103.16 74.4537C103.173 74.5195 103.205 74.58 103.252 74.6275C103.3 74.6749 103.36 74.707 103.426 74.7198C103.492 74.7325 103.56 74.7253 103.622 74.699C103.684 74.6727 103.736 74.6286 103.772 74.5723C103.809 74.5159 103.827 74.45 103.826 74.383C103.816 74.3023 103.777 74.228 103.717 74.1737C103.656 74.1195 103.578 74.089 103.497 74.088V74.0537Z" fill="white"/>
<path d="M103.586 86.8408C101.849 86.8408 100.152 86.3258 98.7077 85.3609C97.2637 84.3961 96.1382 83.0247 95.4736 81.4202C94.809 79.8158 94.6351 78.0502 94.9739 76.3469C95.3127 74.6436 96.149 73.079 97.377 71.851C98.6051 70.623 100.17 69.7867 101.873 69.4479C103.576 69.1091 105.342 69.283 106.946 69.9476C108.551 70.6122 109.922 71.7376 110.887 73.1816C111.852 74.6256 112.367 76.3233 112.367 78.06C112.365 80.3882 111.439 82.6206 109.793 84.2669C108.147 85.9133 105.914 86.839 103.586 86.8408ZM103.586 69.9652C101.985 69.9652 100.42 70.4399 99.0888 71.3294C97.7576 72.2189 96.7201 73.4831 96.1074 74.9622C95.4947 76.4414 95.3344 78.069 95.6467 79.6392C95.9591 81.2094 96.73 82.6518 97.8621 83.7839C98.9942 84.9159 100.437 85.6869 102.007 85.9992C103.577 86.3116 105.205 86.1513 106.684 85.5386C108.163 84.9259 109.427 83.8884 110.317 82.5572C111.206 81.226 111.681 79.661 111.681 78.06C111.677 75.9149 110.823 73.8587 109.305 72.3425C107.788 70.8263 105.731 69.9739 103.586 69.972V69.9652Z" fill="white"/>
<path d="M95.45 92.0887C95.4757 92.0635 95.5102 92.0494 95.5461 92.0494C95.582 92.0494 95.6165 92.0635 95.6421 92.0887C95.782 92.2093 95.9584 92.2793 96.1429 92.2876C96.2601 92.2916 96.3755 92.2579 96.4722 92.1916C96.5045 92.1707 96.5314 92.1424 96.5505 92.1089C96.5696 92.0755 96.5804 92.038 96.5819 91.9995C96.5889 91.9725 96.5889 91.9442 96.5819 91.9172C96.5594 91.8871 96.5315 91.8615 96.4996 91.8417C96.3904 91.7767 96.269 91.7346 96.1429 91.7182C96.0272 91.6973 95.9144 91.6628 95.8068 91.6153C95.7062 91.5722 95.6204 91.5007 95.5598 91.4095C95.5179 91.3441 95.4964 91.2677 95.4981 91.19C95.5015 91.1148 95.5225 91.0416 95.5594 90.976C95.5964 90.9105 95.6482 90.8545 95.7107 90.8127C95.8428 90.7185 96.0012 90.6681 96.1635 90.6686C96.3727 90.6792 96.5738 90.7534 96.7397 90.8813C96.768 90.902 96.7873 90.9327 96.7937 90.9671C96.8001 91.0015 96.793 91.0371 96.774 91.0665C96.7544 91.0959 96.7242 91.1166 96.6897 91.1243C96.6552 91.132 96.619 91.126 96.5888 91.1077C96.4671 91.0097 96.3191 90.95 96.1635 90.9362C96.0585 90.9363 95.956 90.9674 95.8685 91.0254C95.8412 91.0438 95.8183 91.0682 95.8017 91.0967C95.7851 91.1252 95.7751 91.1571 95.7725 91.19C95.7646 91.2145 95.7646 91.2409 95.7725 91.2655C95.7926 91.2933 95.8183 91.3167 95.8479 91.3341C95.9471 91.393 96.0565 91.4325 96.1703 91.4507C96.2954 91.4729 96.4174 91.5098 96.5339 91.5604C96.6405 91.6064 96.7312 91.6827 96.7946 91.78C96.8379 91.8451 96.8617 91.9213 96.8632 91.9995C96.8609 92.0811 96.8391 92.1611 96.7997 92.2326C96.7604 92.3042 96.7045 92.3654 96.6368 92.4111C96.4945 92.5117 96.324 92.5645 96.1498 92.562C95.8975 92.5528 95.6557 92.4585 95.4638 92.2945C95.4472 92.2834 95.4335 92.2686 95.4235 92.2514C95.4136 92.2341 95.4077 92.2148 95.4064 92.1949C95.4051 92.1751 95.4083 92.1551 95.4159 92.1367C95.4234 92.1183 95.4351 92.1019 95.45 92.0887Z" fill="white"/>
<path d="M98.0157 92.5483C97.8149 92.5465 97.623 92.4655 97.4817 92.3229C97.3404 92.1803 97.2611 91.9876 97.2611 91.7868V90.8539C97.2611 90.835 97.2648 90.8162 97.2721 90.7988C97.2793 90.7813 97.2899 90.7654 97.3033 90.752C97.3167 90.7386 97.3325 90.728 97.35 90.7208C97.3675 90.7135 97.3862 90.7098 97.4052 90.7098C97.4434 90.7098 97.48 90.725 97.507 90.752C97.534 90.779 97.5492 90.8157 97.5492 90.8539V91.7868C97.5492 91.9106 97.5984 92.0292 97.6858 92.1167C97.7733 92.2042 97.892 92.2533 98.0157 92.2533C98.1394 92.2533 98.2581 92.2042 98.3456 92.1167C98.433 92.0292 98.4822 91.9106 98.4822 91.7868V90.8539C98.4822 90.8344 98.4861 90.8151 98.4938 90.7971C98.5014 90.7792 98.5127 90.763 98.5268 90.7495C98.5409 90.736 98.5576 90.7256 98.5759 90.7188C98.5941 90.7119 98.6136 90.7089 98.6331 90.7098C98.6713 90.7098 98.7079 90.725 98.735 90.752C98.762 90.779 98.7772 90.8157 98.7772 90.8539V91.7868C98.7772 91.8868 98.7575 91.9859 98.7192 92.0782C98.6809 92.1706 98.6248 92.2546 98.5541 92.3253C98.4834 92.396 98.3995 92.4521 98.3071 92.4903C98.2147 92.5286 98.1157 92.5483 98.0157 92.5483Z" fill="white"/>
<path d="M99.3877 92.4042V90.8539C99.3877 90.8344 99.3916 90.8151 99.3993 90.7971C99.4069 90.7792 99.4182 90.763 99.4323 90.7495C99.4464 90.736 99.4631 90.7256 99.4814 90.7188C99.4996 90.7119 99.5191 90.7089 99.5386 90.7098H99.9091C100.042 90.7098 100.169 90.7626 100.263 90.8565C100.357 90.9504 100.41 91.0778 100.41 91.2106C100.408 91.3175 100.372 91.421 100.307 91.5056C100.388 91.5575 100.454 91.6284 100.501 91.7122C100.547 91.7959 100.573 91.8899 100.574 91.9858C100.574 92.135 100.515 92.2781 100.41 92.3835C100.304 92.489 100.161 92.5483 100.012 92.5483H99.5386C99.4998 92.5483 99.4624 92.5334 99.4342 92.5065C99.4061 92.4797 99.3895 92.4431 99.3877 92.4042ZM99.6827 91.4233H99.9091C99.9655 91.4233 100.02 91.4009 100.059 91.361C100.099 91.3211 100.122 91.267 100.122 91.2106C100.122 91.1542 100.099 91.1001 100.059 91.0602C100.02 91.0203 99.9655 90.9979 99.9091 90.9979H99.6827V91.4233ZM99.6827 92.2602H100.012C100.085 92.2602 100.155 92.2313 100.206 92.1798C100.257 92.1284 100.286 92.0586 100.286 91.9858C100.286 91.913 100.257 91.8432 100.206 91.7918C100.155 91.7403 100.085 91.7114 100.012 91.7114H99.6827V92.2602Z" fill="white"/>
<path d="M100.89 92.0887C100.916 92.0635 100.95 92.0494 100.986 92.0494C101.022 92.0494 101.056 92.0635 101.082 92.0887C101.222 92.2093 101.398 92.2794 101.583 92.2876C101.7 92.2926 101.816 92.2588 101.912 92.1916C101.947 92.1725 101.976 92.1447 101.996 92.111C102.016 92.0773 102.028 92.0389 102.029 91.9995C102.039 91.973 102.039 91.9437 102.029 91.9172C102.009 91.8871 101.983 91.8614 101.953 91.8417C101.842 91.7758 101.718 91.7337 101.59 91.7182C101.475 91.6953 101.362 91.6609 101.254 91.6153C101.156 91.5673 101.072 91.4967 101.007 91.4095C100.97 91.3422 100.951 91.2666 100.952 91.19C100.955 91.1157 100.976 91.0431 101.011 90.9778C101.047 90.9125 101.097 90.856 101.158 90.8127C101.292 90.7184 101.453 90.668 101.617 90.6686C101.824 90.6788 102.023 90.7532 102.187 90.8813C102.202 90.8902 102.216 90.9024 102.226 90.917C102.236 90.9316 102.243 90.9484 102.247 90.966C102.25 90.9836 102.249 91.0017 102.245 91.0191C102.24 91.0365 102.232 91.0526 102.221 91.0665C102.212 91.0818 102.2 91.0951 102.185 91.1055C102.171 91.1159 102.154 91.1232 102.137 91.1271C102.12 91.1309 102.102 91.1312 102.084 91.1279C102.067 91.1245 102.05 91.1177 102.036 91.1077C101.917 91.0087 101.771 90.9488 101.617 90.9362C101.512 90.9355 101.409 90.9666 101.322 91.0254C101.293 91.0427 101.269 91.0666 101.251 91.0953C101.233 91.1239 101.222 91.1564 101.219 91.19C101.211 91.2145 101.211 91.2409 101.219 91.2655C101.237 91.2933 101.26 91.3168 101.288 91.3341C101.389 91.3939 101.501 91.4336 101.617 91.4507C101.742 91.4749 101.864 91.5117 101.981 91.5604C102.085 91.6105 102.174 91.686 102.241 91.78C102.283 91.8457 102.304 91.9219 102.303 91.9995C102.301 92.0811 102.279 92.1611 102.24 92.2326C102.2 92.3042 102.145 92.3654 102.077 92.4111C101.935 92.5126 101.764 92.5655 101.59 92.562C101.338 92.5513 101.096 92.4571 100.904 92.2945C100.889 92.282 100.877 92.2667 100.869 92.2495C100.86 92.2324 100.855 92.2136 100.854 92.1945C100.852 92.1753 100.855 92.156 100.861 92.1379C100.867 92.1197 100.877 92.103 100.89 92.0887Z" fill="white"/>
<path d="M102.619 91.6016C102.624 91.3499 102.727 91.1101 102.907 90.9333C103.086 90.7566 103.327 90.6567 103.579 90.655C103.8 90.6529 104.015 90.7254 104.19 90.8608C104.222 90.8853 104.242 90.9215 104.247 90.9614C104.253 91.0013 104.242 91.0416 104.217 91.0734C104.193 91.1053 104.156 91.126 104.116 91.1312C104.077 91.1363 104.036 91.1254 104.004 91.1009C103.883 91.0065 103.733 90.9557 103.579 90.9568C103.403 90.9575 103.233 91.0263 103.106 91.1489C103.046 91.2082 102.999 91.2788 102.968 91.3566C102.936 91.4343 102.92 91.5176 102.921 91.6016C102.92 91.6867 102.935 91.7711 102.967 91.8499C102.999 91.9288 103.046 92.0006 103.106 92.0613C103.234 92.1813 103.403 92.2476 103.579 92.2465C103.733 92.2475 103.883 92.1968 104.004 92.1024C104.038 92.0816 104.078 92.0737 104.117 92.08C104.156 92.0863 104.192 92.1064 104.217 92.1367C104.243 92.1647 104.258 92.2014 104.258 92.2396C104.258 92.2778 104.243 92.3146 104.217 92.3425C104.043 92.4779 103.827 92.5504 103.607 92.5483C103.479 92.552 103.353 92.5303 103.234 92.4845C103.115 92.4387 103.006 92.3698 102.915 92.2817C102.823 92.1936 102.749 92.0881 102.698 91.9714C102.648 91.8546 102.621 91.7289 102.619 91.6016Z" fill="white"/>
<path d="M105.939 92.3287C105.945 92.3472 105.948 92.3667 105.946 92.3862C105.945 92.4056 105.94 92.4246 105.931 92.4419C105.922 92.4592 105.909 92.4746 105.894 92.4869C105.879 92.4993 105.862 92.5085 105.843 92.514H105.788C105.754 92.5224 105.719 92.5224 105.685 92.514C105.651 92.4913 105.623 92.4607 105.603 92.4248C105.556 92.3265 105.535 92.2179 105.541 92.1092C105.554 92.0714 105.554 92.0305 105.541 91.9926C105.521 91.9608 105.492 91.9348 105.459 91.9171C105.413 91.8911 105.365 91.8704 105.315 91.8554H104.958V92.4248C104.956 92.4636 104.94 92.5002 104.911 92.5271C104.883 92.5539 104.846 92.5689 104.807 92.5688C104.769 92.5688 104.732 92.5537 104.705 92.5266C104.678 92.4996 104.663 92.463 104.663 92.4248V90.8744C104.663 90.8555 104.667 90.8368 104.674 90.8193C104.681 90.8018 104.692 90.7859 104.705 90.7725C104.719 90.7592 104.734 90.7486 104.752 90.7413C104.769 90.7341 104.788 90.7303 104.807 90.7303H105.28C105.43 90.7303 105.573 90.7896 105.678 90.8951C105.784 91.0006 105.843 91.1437 105.843 91.2929C105.843 91.3757 105.825 91.4575 105.789 91.5323C105.753 91.607 105.701 91.6729 105.637 91.7251C105.67 91.7537 105.7 91.7859 105.726 91.8211C105.785 91.9055 105.817 92.0062 105.815 92.1092C105.815 92.1847 105.815 92.2327 105.815 92.2601C105.84 92.2593 105.865 92.2652 105.887 92.2773C105.908 92.2894 105.927 92.3072 105.939 92.3287ZM105.569 91.2723C105.569 91.2366 105.563 91.2011 105.55 91.1678C105.537 91.1345 105.518 91.1042 105.493 91.0787C105.468 91.0531 105.438 91.0328 105.405 91.0189C105.372 91.005 105.337 90.9979 105.301 90.9979H104.958V91.5398H105.28C105.317 91.5438 105.355 91.5397 105.39 91.528C105.426 91.5162 105.458 91.497 105.485 91.4716C105.513 91.4463 105.534 91.4154 105.549 91.381C105.563 91.3466 105.57 91.3095 105.569 91.2723Z" fill="white"/>
<path d="M106.378 90.8539C106.378 90.8157 106.393 90.779 106.42 90.752C106.447 90.725 106.484 90.7098 106.522 90.7098C106.542 90.7089 106.561 90.7119 106.579 90.7188C106.598 90.7256 106.614 90.736 106.628 90.7495C106.643 90.763 106.654 90.7792 106.661 90.7971C106.669 90.8151 106.673 90.8344 106.673 90.8539V92.4042C106.673 92.4237 106.669 92.4431 106.661 92.461C106.654 92.4789 106.643 92.4951 106.628 92.5086C106.614 92.5221 106.598 92.5325 106.579 92.5394C106.561 92.5462 106.542 92.5492 106.522 92.5483C106.484 92.5483 106.447 92.5331 106.42 92.5061C106.393 92.4791 106.378 92.4424 106.378 92.4042V90.8539Z" fill="white"/>
<path d="M107.16 92.4042V90.8538C107.16 90.8156 107.175 90.779 107.202 90.752C107.229 90.725 107.266 90.7098 107.304 90.7098H107.702C107.834 90.7116 107.959 90.7651 108.052 90.8589C108.144 90.9526 108.196 91.0789 108.196 91.2106C108.197 91.3167 108.163 91.4203 108.1 91.5055C108.181 91.5574 108.247 91.6284 108.294 91.7121C108.34 91.7959 108.366 91.8899 108.367 91.9857C108.367 92.1349 108.308 92.278 108.203 92.3835C108.097 92.489 107.954 92.5483 107.805 92.5483H107.325C107.304 92.5501 107.284 92.5479 107.264 92.5415C107.245 92.5352 107.227 92.525 107.211 92.5116C107.196 92.4981 107.184 92.4816 107.175 92.4632C107.166 92.4447 107.161 92.4246 107.16 92.4042ZM107.455 91.4232H107.702C107.758 91.4232 107.812 91.4008 107.852 91.3609C107.892 91.321 107.915 91.267 107.915 91.2106C107.915 91.1542 107.892 91.1001 107.852 91.0602C107.812 91.0203 107.758 90.9979 107.702 90.9979H107.476L107.455 91.4232ZM107.455 92.2601H107.784C107.857 92.2601 107.927 92.2312 107.978 92.1798C108.03 92.1283 108.059 92.0585 108.059 91.9857C108.059 91.913 108.03 91.8432 107.978 91.7917C107.927 91.7403 107.857 91.7113 107.784 91.7113H107.455V92.2601Z" fill="white"/>
<path d="M108.717 92.4042V90.8538C108.717 90.8156 108.732 90.779 108.759 90.752C108.786 90.725 108.823 90.7098 108.861 90.7098H109.76C109.798 90.7098 109.835 90.725 109.862 90.752C109.889 90.779 109.904 90.8156 109.904 90.8538C109.904 90.892 109.889 90.9287 109.862 90.9557C109.835 90.9827 109.798 90.9979 109.76 90.9979H109.074V91.485H109.685C109.723 91.485 109.759 91.5001 109.786 91.5272C109.813 91.5542 109.829 91.5908 109.829 91.629C109.829 91.6672 109.813 91.7039 109.786 91.7309C109.759 91.7579 109.723 91.7731 109.685 91.7731H109.074V92.2601H109.76C109.798 92.2601 109.835 92.2753 109.862 92.3023C109.889 92.3294 109.904 92.366 109.904 92.4042C109.902 92.4419 109.887 92.4775 109.86 92.5042C109.833 92.5309 109.798 92.5466 109.76 92.5483H108.896C108.874 92.5522 108.852 92.5515 108.831 92.5462C108.81 92.5408 108.79 92.531 108.773 92.5173C108.756 92.5036 108.743 92.4864 108.733 92.4669C108.723 92.4474 108.718 92.426 108.717 92.4042Z" fill="white"/>
<path d="M110.274 92.4042V90.8538C110.274 90.8156 110.29 90.779 110.317 90.752C110.344 90.725 110.38 90.7098 110.419 90.7098H110.727C110.971 90.7098 111.205 90.8066 111.377 90.979C111.55 91.1514 111.646 91.3852 111.646 91.629C111.646 91.8728 111.55 92.1066 111.377 92.279C111.205 92.4514 110.971 92.5483 110.727 92.5483H110.446C110.425 92.5524 110.403 92.5517 110.382 92.5463C110.362 92.5409 110.342 92.531 110.326 92.5172C110.309 92.5033 110.296 92.486 110.287 92.4665C110.279 92.4469 110.274 92.4257 110.274 92.4042ZM110.569 92.2601H110.727C110.895 92.2601 111.055 92.1936 111.174 92.0753C111.292 91.9569 111.358 91.7964 111.358 91.629C111.358 91.4616 111.292 91.3011 111.174 91.1828C111.055 91.0644 110.895 90.9979 110.727 90.9979H110.569V92.2601Z" fill="white"/>
<path d="M131.808 118.918C131.808 118.918 132.062 107.681 131.122 102.715C130.182 97.7482 119.707 80.5982 115.872 82.6493C110.919 85.2836 115.001 96.3693 117.704 101.549C117.704 101.549 106.255 107.647 107.455 116.236C108.656 124.825 131.808 118.918 131.808 118.918Z" fill="#F7A9A0"/>
<path d="M114.713 83.8155C111.969 89.4819 115.927 96.04 118.184 101.254C118.22 101.329 118.237 101.412 118.233 101.495C118.23 101.578 118.207 101.66 118.166 101.732C118.125 101.805 118.068 101.867 117.998 101.912C117.928 101.958 117.849 101.986 117.766 101.995C113.135 104.876 107.476 110.275 107.139 116.023C107.139 116.058 107.126 116.091 107.101 116.115C107.077 116.14 107.044 116.154 107.009 116.154C106.975 116.154 106.941 116.14 106.917 116.115C106.893 116.091 106.879 116.058 106.879 116.023C106.364 109.849 111.523 104.053 116.798 101.226C114.404 95.9166 110.693 89.1663 114.665 83.7812C114.685 83.7606 114.734 83.7812 114.713 83.8155Z" fill="#263238"/>
<path d="M133.084 138.846L163.954 151.483C163.954 151.483 172.618 124.729 174.093 109.966C174.916 101.693 170.059 101.473 164.071 106.014C143.134 121.909 133.084 138.846 133.084 138.846Z" fill="#455A64"/>
<path d="M173.887 111.818C173.887 112.038 173.832 112.257 173.798 112.504C170.992 112.909 168.173 113.252 165.333 113.485C161.847 113.792 158.344 113.85 154.851 113.657L155.379 113.183C158.684 113.286 161.992 113.19 165.285 112.895C168.166 112.655 171.027 112.278 173.887 111.818ZM169.517 107.359C168.454 106.405 167.405 105.438 166.355 104.464L166.17 104.574C167.233 105.555 168.29 106.55 169.353 107.537C170.841 108.909 172.351 110.281 173.922 111.55C173.922 111.427 173.956 111.31 173.97 111.194C172.447 110 170.972 108.704 169.517 107.386V107.359ZM159.426 132.714C157.392 132.629 155.354 132.765 153.348 133.118C151.358 133.532 149.394 134.069 147.469 134.724C143.635 136.061 139.922 137.722 136.37 139.69C136.192 139.786 136.013 139.882 135.842 139.985L136.528 140.273L136.631 140.212C140.148 138.242 143.818 136.561 147.607 135.183C149.501 134.508 151.438 133.956 153.403 133.53C155.378 133.149 157.389 132.991 159.399 133.057C162.626 133.173 165.83 133.656 168.948 134.497C168.948 134.408 168.989 134.326 169.017 134.237C165.888 133.367 162.671 132.856 159.426 132.714Z" fill="#37474F"/>
<path d="M164.839 144.362C159.913 142.002 146.351 136.02 136.994 133.386C136.939 133.386 136.843 133.592 136.898 133.612C144.307 137.042 159.57 142.805 164.695 144.698C164.791 144.746 164.928 144.403 164.839 144.362Z" fill="#263238"/>
<path d="M172.406 124.029C171.781 125.607 171.184 127.198 170.595 128.79C170.636 128.598 170.691 128.399 170.732 128.2C171.239 125.936 171.733 123.672 172.172 121.388C172.172 121.333 172.09 121.312 172.076 121.388C170.018 129.277 164.427 149.164 163.981 151.366C163.81 151.318 160.798 150.111 160.394 150.042C160.311 150.042 160.236 150.193 160.318 150.213C160.524 150.261 164.434 151.915 164.434 151.86C166.026 148.08 169.483 133.516 170.238 130.285C171.075 128.25 171.809 126.176 172.44 124.063C172.44 124.063 172.419 123.995 172.406 124.029Z" fill="#263238"/>
<path d="M173.037 105.239C173.585 106.762 182.243 116.023 189.35 114.843C191.668 114.452 190.111 101.727 190.111 101.727L190.214 100.76L191.586 87.2455L174.93 79.1507L172.543 78.1011C172.543 78.1011 172.406 81.8261 172.282 86.4635C172.282 86.683 172.282 86.8957 172.282 87.1495C172.282 87.4033 172.282 87.664 172.282 87.9109C172.282 88.5969 172.227 89.2829 172.22 90.0101C172.22 90.552 172.22 91.0734 172.22 91.6359C172.22 92.1984 172.22 92.7472 172.22 93.3166C172.261 98.8664 172.81 104.594 173.037 105.239Z" fill="#F7A9A0"/>
<path d="M172.309 86.436C174.076 89.9776 176.592 93.0918 179.685 95.5619C182.777 98.032 186.37 99.7987 190.214 100.739L191.586 87.2249L174.93 79.1507L172.543 78.1011C172.543 78.1011 172.433 81.8261 172.309 86.436Z" fill="#263238"/>
<path d="M206.925 64.9642C212.749 88.0893 199.557 94.1947 194.577 95.4432C190.049 96.582 174.484 99.8679 166.3 77.47C158.116 55.0721 167.027 45.0496 177.276 41.9078C187.525 38.7659 201.094 41.846 206.925 64.9642Z" fill="#F7A9A0"/>
<path d="M199.537 60.6356C198.988 60.663 198.439 60.663 197.89 60.6356C197.308 60.7038 196.719 60.5836 196.21 60.2926C196.07 60.1688 195.974 60.0022 195.938 59.8187C195.902 59.6351 195.928 59.4449 196.011 59.2773C196.226 58.9703 196.52 58.7264 196.861 58.5708C197.202 58.4152 197.579 58.3536 197.952 58.3924C198.717 58.3496 199.471 58.5943 200.065 59.0784C200.193 59.1962 200.285 59.3488 200.328 59.5176C200.371 59.6864 200.364 59.8641 200.308 60.0291C200.252 60.1941 200.15 60.3393 200.013 60.447C199.876 60.5547 199.71 60.6202 199.537 60.6356Z" fill="#263238"/>
<path d="M184.589 64.0244C185.105 63.8365 185.611 63.6213 186.105 63.3796C186.671 63.2253 187.171 62.8875 187.525 62.4192C187.608 62.2511 187.633 62.0601 187.596 61.8762C187.559 61.6923 187.461 61.5261 187.319 61.4039C187.003 61.2036 186.64 61.0911 186.266 61.0778C185.892 61.0645 185.522 61.151 185.193 61.3284C184.47 61.5877 183.867 62.1026 183.498 62.7759C183.424 62.935 183.397 63.1124 183.421 63.2865C183.446 63.4606 183.52 63.6237 183.636 63.7561C183.752 63.8885 183.903 63.9843 184.073 64.032C184.242 64.0796 184.421 64.077 184.589 64.0244Z" fill="#263238"/>
<path d="M188.876 69.286C188.876 69.2312 188.767 69.3889 188.787 69.4575C189.192 71.0285 189.384 72.8875 188.067 73.745C188.026 73.745 188.067 73.8479 188.101 73.8274C189.796 73.2168 189.514 70.7335 188.876 69.286Z" fill="#263238"/>
<path d="M187.093 67.9689C184.5 68.3394 185.44 73.4981 187.841 73.1551C190.242 72.8121 189.267 67.6534 187.093 67.9689Z" fill="#263238"/>
<path d="M186.132 68.4217C185.735 68.799 185.385 69.3958 184.85 69.5467C184.314 69.6976 183.663 69.2723 183.155 68.8607C183.107 68.8127 183.066 68.8607 183.08 68.9362C183.244 69.924 183.807 70.8707 184.898 70.8227C185.988 70.7747 186.421 69.78 186.489 68.7647C186.496 68.5177 186.29 68.2708 186.132 68.4217Z" fill="#263238"/>
<path d="M197.87 66.6586C197.87 66.5969 198.007 66.7135 198.014 66.7752C198.24 68.3873 198.775 70.2052 200.312 70.4659C200.36 70.4659 200.374 70.562 200.312 70.562C198.508 70.6168 197.829 68.2158 197.87 66.6586Z" fill="#263238"/>
<path d="M199.009 64.7378C201.547 64.093 202.644 69.2174 200.291 69.8142C197.938 70.411 196.882 65.2798 199.009 64.7378Z" fill="#263238"/>
<path d="M200.147 64.8476C200.607 65.0328 201.115 65.4375 201.609 65.3689C202.102 65.3003 202.473 64.6418 202.713 63.9969C202.713 63.9352 202.788 63.9969 202.809 64.0381C203.042 65.0122 202.939 66.0961 202.041 66.4871C201.142 66.8781 200.408 66.1373 199.983 65.2112C199.88 65.074 199.962 64.7721 200.147 64.8476Z" fill="#263238"/>
<path d="M191.298 81.9496C191.737 82.272 192.19 82.7385 192.78 82.711C193.377 82.6192 193.947 82.4017 194.454 82.073C194.464 82.0621 194.478 82.0556 194.492 82.055C194.507 82.0543 194.522 82.0596 194.532 82.0696C194.543 82.0796 194.55 82.0936 194.551 82.1083C194.551 82.1231 194.546 82.1376 194.536 82.1485C194.348 82.4961 194.07 82.7862 193.731 82.988C193.391 83.1897 193.003 83.2955 192.608 83.2941C192.27 83.2527 191.951 83.112 191.692 82.8899C191.433 82.6677 191.246 82.374 191.154 82.0456C191.113 81.9564 191.236 81.9015 191.298 81.9496Z" fill="#263238"/>
<path d="M197.52 74.4927C197.52 74.4927 198.316 76.8183 198.535 77.9227C197.526 78.3813 196.412 78.5595 195.31 78.4388C194.208 78.3181 193.158 77.9029 192.272 77.2367C192.162 77.1544 192.272 77.0035 192.409 77.0515C194.035 77.7547 195.843 77.9182 197.568 77.518C197.568 77.1887 196.066 73.5735 196.244 73.5255C197.136 73.435 198.035 73.4627 198.919 73.6078C197.403 68.7098 195.112 64.0998 193.678 59.2018C193.669 59.1662 193.673 59.1285 193.689 59.0954C193.705 59.0623 193.732 59.0357 193.765 59.0202C193.798 59.0048 193.836 59.0015 193.872 59.0108C193.907 59.0202 193.938 59.0416 193.96 59.0715C196.704 63.7363 198.57 69.3615 200.264 74.3487C200.497 74.9935 198.007 74.5956 197.52 74.4927Z" fill="#263238"/>
<path d="M196.971 78.1285C196.5 79.0317 195.803 79.7975 194.947 80.3512C194.474 80.6392 193.923 80.7734 193.37 80.7353C192.155 80.6324 191.943 79.576 191.998 78.6293C192.03 78.1285 192.122 77.6334 192.272 77.1544C193.694 77.973 195.341 78.3144 196.971 78.1285Z" fill="#263238"/>
<path d="M194.947 80.3512C194.474 80.6392 193.923 80.7734 193.37 80.7354C192.155 80.6325 191.943 79.576 191.998 78.6294C193.26 78.5402 194.632 79.1644 194.947 80.3512Z" fill="#FF9ABB"/>
<path d="M190.42 45.084C190.42 45.084 191.415 48.6237 190.221 51.21C187.786 56.5265 181.399 55.2436 179.245 57.384C177.242 59.3734 178.017 63.4139 176.199 65.4033C173.681 68.1473 170.19 67.1594 169.799 68.9911C169.408 70.8227 168.283 76.6537 165.964 77.4289C163.645 78.2041 150.872 46.2707 182.805 40.4603C182.805 40.4603 186.956 38.6836 193.479 41.8323C200.003 44.9811 204.503 57.137 204.503 57.137C203.868 56.8318 203.28 56.4342 202.761 55.9571C201.272 54.688 200.703 53.5012 199.599 52.678C197.89 51.3883 196.971 51.9028 195.194 50.62C192.492 48.706 190.42 45.084 190.42 45.084Z" fill="#263238"/>
<path d="M189.933 43.4101C190.428 44.912 190.751 46.4655 190.893 48.0406C191.116 49.577 190.915 51.1451 190.31 52.5751C189.532 53.8705 188.315 54.8441 186.88 55.3191C185.44 55.8679 183.848 56.0462 182.305 56.6911C181.487 57.0263 180.783 57.588 180.274 58.31C179.836 59.0301 179.544 59.8298 179.416 60.663C179.115 62.2271 178.813 63.7706 177.797 64.9025C177.29 65.4738 176.665 65.9279 175.965 66.2336C175.265 66.5392 174.507 66.6889 173.743 66.6724C172.213 66.6724 170.512 66.2951 169.024 66.9948C170.56 66.4185 172.138 66.9468 173.736 67.0428C174.565 67.0924 175.395 66.9617 176.168 66.6597C176.941 66.3577 177.64 65.8916 178.216 65.2935C179.444 64.0724 179.759 62.3094 180.082 60.8071C180.205 60.0763 180.47 59.3769 180.864 58.7491C181.311 58.1705 181.909 57.7266 182.593 57.4662C183.965 56.8557 185.584 56.643 187.113 56.0325C187.886 55.7379 188.61 55.3286 189.261 54.8183C189.942 54.3146 190.485 53.6468 190.838 52.8769C191.416 51.345 191.561 49.6836 191.257 48.0749C191 46.4735 190.555 44.9078 189.933 43.4101Z" fill="#263238"/>
<path d="M190.536 44.7821C190.857 46.2366 191.377 47.64 192.08 48.953C192.765 50.335 193.844 51.4832 195.181 52.2526C195.86 52.5848 196.57 52.849 197.3 53.0415C197.935 53.24 198.503 53.6104 198.94 54.1117C199.338 54.7477 199.797 55.3429 200.312 55.8884C200.87 56.3965 201.536 56.7717 202.26 56.986C201.613 56.6464 201.042 56.1797 200.58 55.614C200.139 55.0349 199.755 54.4147 199.434 53.7618C198.969 53.119 198.318 52.6351 197.568 52.3761C196.86 52.1807 196.171 51.9213 195.51 51.6009C194.292 50.8832 193.279 49.8652 192.567 48.6443C191.804 47.404 191.126 46.1137 190.536 44.7821Z" fill="#263238"/>
<path d="M170.348 77.518C170.348 77.518 164.023 71.001 160.984 73.402C157.945 75.803 163.529 85.7981 167.679 86.6213C168.204 86.7633 168.752 86.798 169.291 86.7231C169.83 86.6482 170.348 86.4653 170.814 86.1854C171.28 85.9054 171.685 85.5342 172.005 85.094C172.324 84.6538 172.552 84.1536 172.673 83.6234L170.348 77.518Z" fill="#F7A9A0"/>
<path d="M162.657 76.2146C162.643 76.2146 162.629 76.2204 162.619 76.2307C162.608 76.241 162.603 76.2549 162.603 76.2695C162.603 76.284 162.608 76.298 162.619 76.3083C162.629 76.3186 162.643 76.3244 162.657 76.3244C165.587 77.0104 167.459 79.3016 168.879 81.778C167.899 80.8931 166.698 80.5158 165.491 81.7095C165.429 81.7712 165.491 81.8741 165.594 81.8398C166.052 81.6094 166.57 81.5265 167.078 81.6027C167.585 81.6789 168.056 81.9103 168.427 82.2651C169.043 82.8604 169.592 83.5205 170.066 84.2339C170.238 84.4603 170.656 84.2339 170.519 83.987L170.485 83.9252C169.984 80.4198 166.472 75.9608 162.657 76.2146Z" fill="#263238"/>
<path d="M169.806 85.1875C169.823 85.3797 169.782 85.5726 169.689 85.7418C169.597 85.911 169.456 86.0488 169.285 86.1378C169.113 86.2268 168.92 86.2629 168.728 86.2416C168.536 86.2203 168.355 86.1426 168.207 86.0182C168.06 85.8938 167.953 85.7284 167.899 85.543C167.846 85.3576 167.849 85.1605 167.907 84.9767C167.966 84.7929 168.078 84.6308 168.229 84.5107C168.38 84.3907 168.564 84.3183 168.756 84.3026C168.883 84.2913 169.011 84.3053 169.133 84.3437C169.255 84.3821 169.367 84.4443 169.465 84.5265C169.563 84.6088 169.643 84.7095 169.701 84.823C169.76 84.9364 169.795 85.0603 169.806 85.1875Z" fill="white"/>
<path d="M167.295 83.8086C167.304 83.9429 167.273 84.0768 167.206 84.1936C167.139 84.3105 167.039 84.4051 166.919 84.4656C166.799 84.5262 166.663 84.5501 166.53 84.5343C166.396 84.5186 166.27 84.4638 166.167 84.3769C166.065 84.29 165.99 84.1748 165.952 84.0457C165.914 83.9165 165.915 83.7791 165.955 83.6505C165.995 83.5219 166.071 83.4078 166.175 83.3225C166.279 83.2372 166.406 83.1844 166.54 83.1706C166.632 83.1612 166.725 83.1704 166.813 83.1976C166.901 83.2249 166.983 83.2696 167.053 83.3292C167.124 83.3887 167.181 83.4619 167.223 83.5443C167.264 83.6267 167.289 83.7166 167.295 83.8086Z" fill="white"/>
<path d="M161.148 76.0843H159.708C159.64 76.0843 159.574 76.0709 159.512 76.045C159.45 76.019 159.393 75.981 159.346 75.9332C159.299 75.8853 159.262 75.8285 159.237 75.7661C159.212 75.7038 159.199 75.637 159.2 75.5698C159.202 75.4345 159.257 75.3054 159.353 75.2104C159.449 75.1154 159.579 75.0621 159.715 75.0621H161.148C161.284 75.0639 161.414 75.1187 161.51 75.2148C161.606 75.3109 161.661 75.4407 161.663 75.5766C161.661 75.7119 161.606 75.841 161.51 75.936C161.413 76.031 161.284 76.0843 161.148 76.0843Z" fill="#1DB954"/>
<path d="M161.333 77.566L159.92 77.8679C159.855 77.882 159.788 77.883 159.722 77.871C159.656 77.8589 159.593 77.834 159.537 77.7977C159.481 77.7614 159.433 77.7143 159.395 77.6593C159.357 77.6042 159.331 77.5422 159.317 77.4768C159.288 77.3441 159.313 77.2054 159.386 77.091C159.46 76.9766 159.575 76.8959 159.708 76.8663L161.114 76.5645C161.247 76.5359 161.385 76.5609 161.5 76.6342C161.614 76.7074 161.695 76.8229 161.725 76.9555C161.751 77.0881 161.725 77.2259 161.653 77.3398C161.58 77.4538 161.465 77.5349 161.333 77.566Z" fill="#1DB954"/>
<path d="M163.145 106.742C163.831 106.056 170.19 100.451 179.135 100.993C188.506 101.569 197.108 108.244 197.108 108.244C197.108 108.244 199.9 117.848 191.524 118.699C179.842 119.872 163.145 106.742 163.145 106.742Z" fill="#F7A9A0"/>
<path d="M163.81 293.011V272.095C163.81 266.422 170.903 266.813 170.903 272.095V289.417H171.082V282.056C171.082 277.254 177.475 277.254 177.475 282.056V289.417H177.674V283.627C177.674 278.948 184.184 278.729 184.184 284.025V291.31H184.383V287.194C184.383 282.097 190.921 281.912 190.921 287.352V306.642C190.921 310.244 189.199 314.435 181.646 314.435H168.07C164.592 314.435 162.019 305.325 160.277 301.792C158.535 298.259 155.063 295.021 152.786 291.66C150.508 288.298 154.227 285.012 157.821 287.708C159.967 289.3 161.97 291.074 163.81 293.011Z" fill="white"/>
<path d="M181.625 315.094H168.07C164.942 315.094 162.76 309.606 161.004 305.229C160.517 304.015 160.058 302.869 159.666 302.066C158.456 299.895 157.004 297.867 155.338 296.023C154.261 294.719 153.136 293.375 152.217 292.017C150.845 290.027 151.38 288.072 152.477 287.022C153.712 285.849 155.962 285.431 158.233 287.132C159.949 288.421 161.578 289.821 163.11 291.324V272.116C163.051 270.806 163.504 269.524 164.372 268.542C164.742 268.152 165.188 267.842 165.683 267.632C166.177 267.422 166.71 267.316 167.247 267.321C169.346 267.321 171.575 269.001 171.575 272.123V278.921C172.056 278.449 172.652 278.112 173.305 277.944C173.957 277.776 174.642 277.783 175.291 277.965C175.939 278.147 176.528 278.496 176.999 278.978C177.469 279.461 177.804 280.058 177.969 280.711C178.331 280.306 178.775 279.982 179.272 279.761C179.769 279.539 180.307 279.426 180.85 279.428C181.364 279.429 181.872 279.534 182.343 279.736C182.815 279.939 183.241 280.236 183.594 280.608C184.404 281.514 184.84 282.693 184.815 283.908L184.856 283.867C185.208 283.491 185.633 283.192 186.105 282.986C186.577 282.781 187.086 282.675 187.6 282.673C189.501 282.673 191.552 284.148 191.552 287.386V306.642C191.586 309.784 190.29 315.094 181.625 315.094ZM155.139 287.372C154.51 287.36 153.9 287.591 153.438 288.017C152.752 288.648 152.409 289.835 153.369 291.248C154.247 292.552 155.345 293.869 156.408 295.145C158.148 297.069 159.658 299.189 160.908 301.463C161.327 302.313 161.793 303.48 162.28 304.721C163.714 308.302 165.882 313.722 168.077 313.722H181.618C188.719 313.722 190.207 309.859 190.207 306.615V287.359C190.207 285.047 188.911 284.018 187.628 284.018C186.345 284.018 185.042 285.012 185.042 287.201V292.003H183.471V284.004C183.524 283.094 183.222 282.198 182.627 281.507C182.4 281.266 182.125 281.075 181.821 280.945C181.516 280.815 181.188 280.75 180.857 280.752C179.643 280.752 178.333 281.644 178.333 283.606V290.082H176.782V282.056C176.782 280.053 175.527 279.154 174.278 279.154C173.03 279.154 171.761 280.06 171.761 282.056V290.103H170.21V272.095C170.21 269.845 168.722 268.665 167.254 268.665C166.902 268.661 166.554 268.73 166.231 268.867C165.907 269.004 165.616 269.206 165.374 269.461C164.751 270.189 164.434 271.131 164.489 272.088V294.788L163.268 293.471C161.467 291.556 159.502 289.802 157.396 288.23C156.756 287.708 155.964 287.407 155.139 287.372Z" fill="#263238"/>
<path d="M170.032 265.324C170.058 264.402 170.26 263.494 170.629 262.649C170.965 261.792 171.466 261.009 172.104 260.344C172.025 262.194 171.296 263.958 170.046 265.324H170.032Z" fill="#263238"/>
<path d="M165.004 265.324C164.368 264.657 163.869 263.871 163.536 263.012C163.163 262.169 162.962 261.259 162.946 260.337C164.196 261.706 164.924 263.472 165.004 265.324Z" fill="#263238"/>
<path d="M161.443 268.912C159.592 268.835 157.828 268.106 156.463 266.854C157.385 266.874 158.294 267.074 159.138 267.444C159.994 267.781 160.776 268.279 161.443 268.912Z" fill="#263238"/>
<path d="M161.443 273.906C160.076 275.159 158.309 275.888 156.456 275.964C157.123 275.327 157.908 274.825 158.768 274.489C159.614 274.125 160.522 273.927 161.443 273.906Z" fill="#263238"/>
<path d="M173.558 273.913C174.48 273.939 175.388 274.141 176.233 274.51C177.093 274.846 177.878 275.347 178.545 275.985C176.693 275.904 174.928 275.176 173.558 273.927V273.913Z" fill="#263238"/>
<path d="M173.558 268.912C174.227 268.278 175.012 267.779 175.87 267.444C176.713 267.071 177.623 266.871 178.545 266.854C177.176 268.104 175.41 268.833 173.558 268.912Z" fill="#263238"/>
</svg>
