<svg width="4" height="16" viewBox="0 0 4 16" fill="none" xmlns="http://www.w3.org/2000/svg">
<path d="M2.25 2.75C2.05109 2.75 1.86032 2.67098 1.71967 2.53033C1.57902 2.38968 1.5 2.19891 1.5 2C1.5 1.80109 1.57902 1.61032 1.71967 1.46967C1.86032 1.32902 2.05109 1.25 2.25 1.25C2.44891 1.25 2.63968 1.32902 2.78033 1.46967C2.92098 1.61032 3 1.80109 3 2C3 2.19891 2.92098 2.38968 2.78033 2.53033C2.63968 2.67098 2.44891 2.75 2.25 2.75ZM2.25 8.75C2.05109 8.75 1.86032 8.67098 1.71967 8.53033C1.57902 8.38968 1.5 8.19891 1.5 8C1.5 7.80109 1.57902 7.61032 1.71967 7.46967C1.86032 7.32902 2.05109 7.25 2.25 7.25C2.44891 7.25 2.63968 7.32902 2.78033 7.46967C2.92098 7.61032 3 7.80109 3 8C3 8.19891 2.92098 8.38968 2.78033 8.53033C2.63968 8.67098 2.44891 8.75 2.25 8.75ZM2.25 14.75C2.05109 14.75 1.86032 14.671 1.71967 14.5303C1.57902 14.3897 1.5 14.1989 1.5 14C1.5 13.8011 1.57902 13.6103 1.71967 13.4697C1.86032 13.329 2.05109 13.25 2.25 13.25C2.44891 13.25 2.63968 13.329 2.78033 13.4697C2.92098 13.6103 3 13.8011 3 14C3 14.1989 2.92098 14.3897 2.78033 14.5303C2.63968 14.671 2.44891 14.75 2.25 14.75Z" stroke="#121212" stroke-width="1.5" stroke-linecap="round" stroke-linejoin="round"/>
</svg>
