<svg width="16" height="18" viewBox="0 0 16 18" fill="none" xmlns="http://www.w3.org/2000/svg">
<path fill-rule="evenodd" clip-rule="evenodd" d="M8.80257 0.905025C8.75235 0.837726 8.68909 0.781236 8.61655 0.738929C8.54401 0.696622 8.4637 0.669366 8.38039 0.658788C8.29709 0.648209 8.21251 0.654526 8.1317 0.677361C8.0509 0.700196 7.97552 0.73908 7.91007 0.791692C6.31303 2.07384 5.25959 3.91222 4.9609 5.93836C4.41355 5.54144 3.93378 5.05886 3.54007 4.50919C3.4866 4.43444 3.4173 4.37241 3.3371 4.32751C3.25691 4.28261 3.16781 4.25594 3.07613 4.24942C2.98446 4.24289 2.89247 4.25666 2.80673 4.28975C2.72098 4.32285 2.64359 4.37444 2.58007 4.44086C1.4795 5.59216 0.774026 7.06393 0.565828 8.64297C0.357629 10.222 0.657523 11.8264 1.42207 13.2236C2.18661 14.6208 3.3761 15.7383 4.81824 16.4143C6.26038 17.0903 7.88028 17.2897 9.44329 16.9835C11.0063 16.6773 12.4312 15.8815 13.5117 14.7113C14.5922 13.5411 15.2721 12.0574 15.453 10.475C15.6338 8.89256 15.3062 7.29366 14.5176 5.90988C13.729 4.5261 12.5204 3.4293 11.0667 2.77836C10.1732 2.34383 9.39674 1.70144 8.80257 0.905025ZM11.1251 10.875C11.1248 11.3271 11.0264 11.7736 10.8367 12.1839C10.6471 12.5943 10.3707 12.9586 10.0266 13.2517C9.68251 13.5448 9.27892 13.7598 8.84367 13.8818C8.40843 14.0039 7.95189 14.03 7.50556 13.9585C7.05923 13.887 6.63373 13.7195 6.25842 13.4675C5.8831 13.2156 5.56691 12.8853 5.33166 12.4993C5.0964 12.1133 4.94768 11.6809 4.89576 11.2318C4.84383 10.7828 4.88994 10.3278 5.03091 9.89836C5.55424 10.2859 6.1559 10.5734 6.8084 10.7317C6.98531 9.59082 7.55221 8.54654 8.41257 7.77669C9.16341 7.87668 9.85238 8.24597 10.3513 8.81589C10.8503 9.38581 11.1252 10.1176 11.1251 10.875Z" fill="#535353"/>
</svg>
