<svg width="22" height="17" viewBox="0 0 22 17" fill="none" xmlns="http://www.w3.org/2000/svg">
<path d="M11.0054 12.2143V7.22541M11.0054 7.22541L8.00538 10.0004M11.0054 7.22541L14.0054 10.0004M5.75538 16.0004C4.68481 16.0016 3.6489 15.621 2.83368 14.9271C2.01846 14.2332 1.47733 13.2713 1.30749 12.2143C1.13765 11.1573 1.35021 10.0744 1.907 9.16C2.46379 8.24562 3.32834 7.55969 4.34538 7.22541C4.08408 5.88658 4.35414 4.49861 5.09837 3.35543C5.84259 2.21224 7.00255 1.40361 8.3326 1.10076C9.66265 0.797917 11.0583 1.02464 12.2241 1.73293C13.3899 2.44121 14.2343 3.57543 14.5784 4.89541C15.1104 4.72239 15.6802 4.70157 16.2234 4.83531C16.7666 4.96905 17.2616 5.25202 17.6525 5.65225C18.0434 6.05249 18.3145 6.55404 18.4354 7.10027C18.5562 7.6465 18.5219 8.21564 18.3364 8.74341C19.155 9.05611 19.8384 9.64551 20.2679 10.4094C20.6975 11.1732 20.8461 12.0633 20.688 12.9253C20.5299 13.7872 20.0751 14.5667 19.4024 15.1284C18.7298 15.6901 17.8817 15.9986 17.0054 16.0004H5.75538Z" stroke="white" stroke-width="1.5" stroke-linecap="round" stroke-linejoin="round"/>
</svg>
