<svg width="22" height="22" viewBox="0 0 22 22" fill="none" xmlns="http://www.w3.org/2000/svg">
<path d="M11.0049 14.4735V9.82672M11.0049 9.82672L8.23558 12.4114M11.0049 9.82672L13.7743 12.4114M6.15856 18C5.1703 18.0011 4.21402 17.6466 3.46148 17.0003C2.70893 16.3539 2.20941 15.4581 2.05262 14.4735C1.89583 13.489 2.09205 12.4803 2.60604 11.6287C3.12003 10.777 3.91811 10.1381 4.85696 9.82672C4.61575 8.57969 4.86504 7.2869 5.55205 6.22211C6.23906 5.15731 7.30984 4.40413 8.53764 4.12205C9.76543 3.83997 11.0538 4.05115 12.13 4.71086C13.2062 5.37058 13.9856 6.42703 14.3032 7.65649C14.7944 7.49533 15.3203 7.47594 15.8218 7.60051C16.3233 7.72508 16.7802 7.98864 17.141 8.36143C17.5018 8.73422 17.7522 9.20139 17.8637 9.71016C17.9753 10.2189 17.9436 10.749 17.7723 11.2406C18.528 11.5319 19.1589 12.0809 19.5554 12.7923C19.9519 13.5038 20.0891 14.3329 19.9432 15.1357C19.7972 15.9386 19.3774 16.6646 18.7564 17.1878C18.1355 17.7109 17.3526 17.9983 16.5437 18H6.15856Z" stroke="white" stroke-linecap="round" stroke-linejoin="round"/>
</svg>
